<?xml version="1.0" encoding="UTF-8" standalone="no"?>
<!DOCTYPE svg PUBLIC "-//W3C//DTD SVG 1.1//EN"
 "http://www.w3.org/Graphics/SVG/1.1/DTD/svg11.dtd">
<!-- Generated by graphviz version 2.43.0 (0)
 -->
<!-- Title: %3 Pages: 1 -->
<svg width="5148pt" height="260pt"
 viewBox="0.00 0.00 5148.00 260.35" xmlns="http://www.w3.org/2000/svg" xmlns:xlink="http://www.w3.org/1999/xlink">
<g id="graph0" class="graph" transform="scale(1 1) rotate(0) translate(4 256.35)">
<title>%3</title>
<polygon fill="white" stroke="transparent" points="-4,4 -4,-256.35 5144,-256.35 5144,4 -4,4"/>
<!-- 140223433240336 -->
<g id="node1" class="node">
<title>140223433240336</title>
<ellipse fill="green" stroke="black" cx="18" cy="-187" rx="18" ry="18"/>
</g>
<!-- 140223433474000 -->
<g id="node2" class="node">
<title>140223433474000</title>
<polygon fill="none" stroke="black" points="253,-205 72,-205 72,-169 253,-169 253,-205"/>
<text text-anchor="middle" x="162.5" y="-183.9" font-family="Times,serif" font-size="12.00">Die Bestellung wird erstellt</text>
</g>
<!-- 140223433240336&#45;&gt;140223433474000 -->
<g id="edge1" class="edge">
<title>140223433240336&#45;&gt;140223433474000</title>
<path fill="none" stroke="black" d="M36.19,-187C43.22,-187 51.96,-187 61.52,-187"/>
<polygon fill="black" stroke="black" points="61.76,-190.5 71.76,-187 61.76,-183.5 61.76,-190.5"/>
</g>
<!-- 140223433472368 -->
<g id="node3" class="node">
<title>140223433472368</title>
<polygon fill="none" stroke="black" points="423,-205 289,-205 289,-169 423,-169 423,-205"/>
<text text-anchor="middle" x="356" y="-183.9" font-family="Times,serif" font-size="12.00">Bestellung erhalten</text>
</g>
<!-- 140223433474000&#45;&gt;140223433472368 -->
<g id="edge2" class="edge">
<title>140223433474000&#45;&gt;140223433472368</title>
<path fill="none" stroke="black" d="M253.08,-187C261.66,-187 270.31,-187 278.75,-187"/>
<polygon fill="black" stroke="black" points="278.92,-190.5 288.92,-187 278.92,-183.5 278.92,-190.5"/>
</g>
<!-- 140223433187968 -->
<g id="node4" class="node">
<title>140223433187968</title>
<polygon fill="none" stroke="black" points="582,-205 459,-205 459,-169 582,-169 582,-205"/>
<text text-anchor="middle" x="520.5" y="-183.9" font-family="Times,serif" font-size="12.00">Bestellung prüfen</text>
</g>
<!-- 140223433472368&#45;&gt;140223433187968 -->
<g id="edge3" class="edge">
<title>140223433472368&#45;&gt;140223433187968</title>
<path fill="none" stroke="black" d="M423.09,-187C431.53,-187 440.19,-187 448.69,-187"/>
<polygon fill="black" stroke="black" points="448.96,-190.5 458.96,-187 448.96,-183.5 448.96,-190.5"/>
</g>
<!-- 140223433559824 -->
<g id="node5" class="node">
<title>140223433559824</title>
<polygon fill="none" stroke="black" points="645,-205 618,-187 645,-169 672,-187 645,-205"/>
<text text-anchor="middle" x="645" y="-183.9" font-family="Times,serif" font-size="12.00">X</text>
</g>
<!-- 140223433187968&#45;&gt;140223433559824 -->
<g id="edge4" class="edge">
<title>140223433187968&#45;&gt;140223433559824</title>
<path fill="none" stroke="black" d="M582.03,-187C590.83,-187 599.66,-187 607.77,-187"/>
<polygon fill="black" stroke="black" points="607.97,-190.5 617.97,-187 607.97,-183.5 607.97,-190.5"/>
</g>
<!-- 140223433188640 -->
<g id="node6" class="node">
<title>140223433188640</title>
<polygon fill="none" stroke="black" points="924,-205 708,-205 708,-169 924,-169 924,-205"/>
<text text-anchor="middle" x="816" y="-183.9" font-family="Times,serif" font-size="12.00">aus der Liste ein Produkt wahlen</text>
</g>
<!-- 140223433559824&#45;&gt;140223433188640 -->
<g id="edge5" class="edge">
<title>140223433559824&#45;&gt;140223433188640</title>
<path fill="none" stroke="black" d="M672.04,-187C679.59,-187 688.38,-187 697.8,-187"/>
<polygon fill="black" stroke="black" points="697.83,-190.5 707.83,-187 697.83,-183.5 697.83,-190.5"/>
</g>
<!-- 140223433472224 -->
<g id="node7" class="node">
<title>140223433472224</title>
<polygon fill="none" stroke="black" points="1236,-205 960,-205 960,-169 1236,-169 1236,-205"/>
<text text-anchor="middle" x="1098" y="-183.9" font-family="Times,serif" font-size="12.00">Lagerbestand für gewahlte Produkt prüfen</text>
</g>
<!-- 140223433188640&#45;&gt;140223433472224 -->
<g id="edge6" class="edge">
<title>140223433188640&#45;&gt;140223433472224</title>
<path fill="none" stroke="black" d="M924.05,-187C932.49,-187 941.09,-187 949.73,-187"/>
<polygon fill="black" stroke="black" points="949.88,-190.5 959.88,-187 949.88,-183.5 949.88,-190.5"/>
</g>
<!-- 140223433559056 -->
<g id="node8" class="node">
<title>140223433559056</title>
<polygon fill="none" stroke="black" points="1299,-205 1272,-187 1299,-169 1326,-187 1299,-205"/>
<text text-anchor="middle" x="1299" y="-183.9" font-family="Times,serif" font-size="12.00">X</text>
</g>
<!-- 140223433472224&#45;&gt;140223433559056 -->
<g id="edge7" class="edge">
<title>140223433472224&#45;&gt;140223433559056</title>
<path fill="none" stroke="black" d="M1236.13,-187C1245.29,-187 1253.96,-187 1261.74,-187"/>
<polygon fill="black" stroke="black" points="1261.77,-190.5 1271.77,-187 1261.77,-183.5 1261.77,-190.5"/>
</g>
<!-- 140223433470544 -->
<g id="node9" class="node">
<title>140223433470544</title>
<polygon fill="none" stroke="black" points="1547,-186 1362,-186 1362,-150 1547,-150 1547,-186"/>
<text text-anchor="middle" x="1454.5" y="-164.9" font-family="Times,serif" font-size="12.00">Bestellung in Auftrag geben</text>
</g>
<!-- 140223433559056&#45;&gt;140223433470544 -->
<g id="edge8" class="edge">
<title>140223433559056&#45;&gt;140223433470544</title>
<path fill="none" stroke="black" d="M1321.99,-184.28C1330.37,-183.24 1340.57,-181.98 1351.53,-180.62"/>
<polygon fill="black" stroke="black" points="1352.3,-184.05 1361.79,-179.35 1351.44,-177.11 1352.3,-184.05"/>
</g>
<!-- 140223433559104 -->
<g id="node10" class="node">
<title>140223433559104</title>
<polygon fill="none" stroke="black" points="2670,-217 2643,-199 2670,-181 2697,-199 2670,-217"/>
<text text-anchor="middle" x="2670" y="-195.9" font-family="Times,serif" font-size="12.00">X</text>
</g>
<!-- 140223433559056&#45;&gt;140223433559104 -->
<g id="edge9" class="edge">
<title>140223433559056&#45;&gt;140223433559104</title>
<path fill="none" stroke="black" d="M1321.3,-190.15C1371.36,-197.27 1500.49,-214 1609,-214 1609,-214 1609,-214 2463,-214 2524.55,-214 2596.18,-207.26 2636.7,-202.81"/>
<polygon fill="black" stroke="black" points="2637.24,-206.27 2646.79,-201.68 2636.46,-199.32 2637.24,-206.27"/>
</g>
<!-- 140223433559776 -->
<g id="node12" class="node">
<title>140223433559776</title>
<polygon fill="none" stroke="black" points="1610,-186 1583,-168 1610,-150 1637,-168 1610,-186"/>
<text text-anchor="middle" x="1610" y="-164.9" font-family="Times,serif" font-size="12.00">X</text>
</g>
<!-- 140223433470544&#45;&gt;140223433559776 -->
<g id="edge10" class="edge">
<title>140223433470544&#45;&gt;140223433559776</title>
<path fill="none" stroke="black" d="M1547.01,-168C1556.01,-168 1564.74,-168 1572.66,-168"/>
<polygon fill="black" stroke="black" points="1572.91,-171.5 1582.91,-168 1572.91,-164.5 1572.91,-171.5"/>
</g>
<!-- 140223433471552 -->
<g id="node11" class="node">
<title>140223433471552</title>
<polygon fill="none" stroke="black" points="2929,-217 2733,-217 2733,-181 2929,-181 2929,-217"/>
<text text-anchor="middle" x="2831" y="-195.9" font-family="Times,serif" font-size="12.00">für die Bestellung reservieren</text>
</g>
<!-- 140223433559104&#45;&gt;140223433471552 -->
<g id="edge11" class="edge">
<title>140223433559104&#45;&gt;140223433471552</title>
<path fill="none" stroke="black" d="M2697.26,-199C2704.77,-199 2713.46,-199 2722.72,-199"/>
<polygon fill="black" stroke="black" points="2722.97,-202.5 2732.97,-199 2722.97,-195.5 2722.97,-202.5"/>
</g>
<!-- 140223433559152 -->
<g id="node13" class="node">
<title>140223433559152</title>
<polygon fill="none" stroke="black" points="2992,-217 2965,-199 2992,-181 3019,-199 2992,-217"/>
<text text-anchor="middle" x="2992" y="-195.9" font-family="Times,serif" font-size="12.00">X</text>
</g>
<!-- 140223433471552&#45;&gt;140223433559152 -->
<g id="edge13" class="edge">
<title>140223433471552&#45;&gt;140223433559152</title>
<path fill="none" stroke="black" d="M2929.07,-199C2938.05,-199 2946.71,-199 2954.57,-199"/>
<polygon fill="black" stroke="black" points="2954.75,-202.5 2964.75,-199 2954.75,-195.5 2954.75,-202.5"/>
</g>
<!-- 140223433470448 -->
<g id="node14" class="node">
<title>140223433470448</title>
<polygon fill="none" stroke="black" points="1700,-186 1673,-168 1700,-150 1727,-168 1700,-186"/>
<text text-anchor="middle" x="1700" y="-164.9" font-family="Times,serif" font-size="12.00">+</text>
</g>
<!-- 140223433559776&#45;&gt;140223433470448 -->
<g id="edge12" class="edge">
<title>140223433559776&#45;&gt;140223433470448</title>
<path fill="none" stroke="black" d="M1637.4,-168C1645.39,-168 1654.31,-168 1662.82,-168"/>
<polygon fill="black" stroke="black" points="1662.92,-171.5 1672.92,-168 1662.92,-164.5 1662.92,-171.5"/>
</g>
<!-- 140223433471600 -->
<g id="node15" class="node">
<title>140223433471600</title>
<polygon fill="none" stroke="black" points="1700,-132 1673,-114 1700,-96 1727,-114 1700,-132"/>
<text text-anchor="middle" x="1700" y="-110.9" font-family="Times,serif" font-size="12.00">+</text>
</g>
<!-- 140223433559776&#45;&gt;140223433471600 -->
<g id="edge14" class="edge">
<title>140223433559776&#45;&gt;140223433471600</title>
<path fill="none" stroke="black" d="M1624.75,-159.56C1638.57,-151.08 1660.11,-137.87 1676.43,-127.85"/>
<polygon fill="black" stroke="black" points="1678.65,-130.59 1685.35,-122.38 1674.99,-124.63 1678.65,-130.59"/>
</g>
<!-- 140223433559152&#45;&gt;140223433559824 -->
<g id="edge15" class="edge">
<title>140223433559152&#45;&gt;140223433559824</title>
<path fill="none" stroke="black" d="M2976.18,-207.02C2963.91,-213.27 2945.81,-221.61 2929,-226 2817.5,-255.13 2786.25,-252 2671,-252 1097,-252 1097,-252 1097,-252 923.29,-252 876.14,-257.66 708,-214 694.99,-210.62 681.22,-204.87 669.97,-199.54"/>
<polygon fill="black" stroke="black" points="671.33,-196.3 660.81,-195.03 668.24,-202.59 671.33,-196.3"/>
</g>
<!-- 140223433534048 -->
<g id="node16" class="node">
<title>140223433534048</title>
<polygon fill="none" stroke="black" points="4396,-163 4369,-145 4396,-127 4423,-145 4396,-163"/>
<text text-anchor="middle" x="4396" y="-141.9" font-family="Times,serif" font-size="12.00">X</text>
</g>
<!-- 140223433559152&#45;&gt;140223433534048 -->
<g id="edge19" class="edge">
<title>140223433559152&#45;&gt;140223433534048</title>
<path fill="none" stroke="black" d="M3016.28,-196.96C3057.51,-193.54 3146.08,-187 3221,-187 3221,-187 3221,-187 4143,-187 4225.09,-187 4320.2,-165.05 4366.6,-152.88"/>
<polygon fill="black" stroke="black" points="4367.76,-156.19 4376.52,-150.23 4365.96,-149.43 4367.76,-156.19"/>
</g>
<!-- 140223433532560 -->
<g id="node17" class="node">
<title>140223433532560</title>
<polygon fill="none" stroke="black" points="1790,-136 1763,-118 1790,-100 1817,-118 1790,-136"/>
<text text-anchor="middle" x="1790" y="-114.9" font-family="Times,serif" font-size="12.00">X</text>
</g>
<!-- 140223433470448&#45;&gt;140223433532560 -->
<g id="edge20" class="edge">
<title>140223433470448&#45;&gt;140223433532560</title>
<path fill="none" stroke="black" d="M1715.14,-159.97C1728.87,-152.17 1749.94,-140.2 1766.06,-131.03"/>
<polygon fill="black" stroke="black" points="1767.93,-134 1774.9,-126.01 1764.47,-127.91 1767.93,-134"/>
</g>
<!-- 140223433559872 -->
<g id="node19" class="node">
<title>140223433559872</title>
<polygon fill="none" stroke="black" points="2344,-186 2317,-168 2344,-150 2371,-168 2344,-186"/>
<text text-anchor="middle" x="2344" y="-164.9" font-family="Times,serif" font-size="12.00">X</text>
</g>
<!-- 140223433470448&#45;&gt;140223433559872 -->
<g id="edge16" class="edge">
<title>140223433470448&#45;&gt;140223433559872</title>
<path fill="none" stroke="black" d="M1727.24,-168C1761.96,-168 1825.07,-168 1879,-168 1879,-168 1879,-168 2068,-168 2153.54,-168 2254.04,-168 2306.66,-168"/>
<polygon fill="black" stroke="black" points="2306.84,-171.5 2316.84,-168 2306.84,-164.5 2306.84,-171.5"/>
</g>
<!-- 140223433471600&#45;&gt;140223433532560 -->
<g id="edge17" class="edge">
<title>140223433471600&#45;&gt;140223433532560</title>
<path fill="none" stroke="black" d="M1725.51,-115.11C1734.48,-115.52 1744.79,-115.99 1754.47,-116.43"/>
<polygon fill="black" stroke="black" points="1754.47,-119.93 1764.62,-116.89 1754.79,-112.94 1754.47,-119.93"/>
</g>
<!-- 140223433556416 -->
<g id="node18" class="node">
<title>140223433556416</title>
<polygon fill="none" stroke="black" points="2670,-117 2643,-99 2670,-81 2697,-99 2670,-117"/>
<text text-anchor="middle" x="2670" y="-95.9" font-family="Times,serif" font-size="12.00">X</text>
</g>
<!-- 140223433471600&#45;&gt;140223433556416 -->
<g id="edge18" class="edge">
<title>140223433471600&#45;&gt;140223433556416</title>
<path fill="none" stroke="black" d="M1713.18,-104.68C1740.96,-84.39 1811.8,-38 1879,-38 1879,-38 1879,-38 2463,-38 2531.31,-38 2607.31,-69.22 2645.04,-86.99"/>
<polygon fill="black" stroke="black" points="2643.67,-90.22 2654.2,-91.4 2646.71,-83.91 2643.67,-90.22"/>
</g>
<!-- 140223433533616 -->
<g id="node20" class="node">
<title>140223433533616</title>
<polygon fill="none" stroke="black" points="4539,-163 4459,-163 4459,-127 4539,-127 4539,-163"/>
<text text-anchor="middle" x="4499" y="-141.9" font-family="Times,serif" font-size="12.00">verpacken</text>
</g>
<!-- 140223433534048&#45;&gt;140223433533616 -->
<g id="edge23" class="edge">
<title>140223433534048&#45;&gt;140223433533616</title>
<path fill="none" stroke="black" d="M4423.01,-145C4430.82,-145 4439.67,-145 4448.48,-145"/>
<polygon fill="black" stroke="black" points="4448.73,-148.5 4458.73,-145 4448.73,-141.5 4448.73,-148.5"/>
</g>
<!-- 140223433556704 -->
<g id="node23" class="node">
<title>140223433556704</title>
<polygon fill="none" stroke="black" points="1880,-136 1853,-118 1880,-100 1907,-118 1880,-136"/>
<text text-anchor="middle" x="1880" y="-114.9" font-family="Times,serif" font-size="12.00">X</text>
</g>
<!-- 140223433532560&#45;&gt;140223433556704 -->
<g id="edge24" class="edge">
<title>140223433532560&#45;&gt;140223433556704</title>
<path fill="none" stroke="black" d="M1817.4,-118C1825.39,-118 1834.31,-118 1842.82,-118"/>
<polygon fill="black" stroke="black" points="1842.92,-121.5 1852.92,-118 1842.92,-114.5 1842.92,-121.5"/>
</g>
<!-- 140223433510864 -->
<g id="node21" class="node">
<title>140223433510864</title>
<polygon fill="none" stroke="black" points="2890.5,-117 2771.5,-117 2771.5,-81 2890.5,-81 2890.5,-117"/>
<text text-anchor="middle" x="2831" y="-95.9" font-family="Times,serif" font-size="12.00">produkt geliefert</text>
</g>
<!-- 140223433556416&#45;&gt;140223433510864 -->
<g id="edge22" class="edge">
<title>140223433556416&#45;&gt;140223433510864</title>
<path fill="none" stroke="black" d="M2697.26,-99C2714.7,-99 2738.46,-99 2761.07,-99"/>
<polygon fill="black" stroke="black" points="2761.34,-102.5 2771.34,-99 2761.34,-95.5 2761.34,-102.5"/>
</g>
<!-- 140223433471408 -->
<g id="node22" class="node">
<title>140223433471408</title>
<polygon fill="none" stroke="black" points="2517,-186 2407,-186 2407,-150 2517,-150 2517,-186"/>
<text text-anchor="middle" x="2462" y="-164.9" font-family="Times,serif" font-size="12.00">14 Tage warten</text>
</g>
<!-- 140223433559872&#45;&gt;140223433471408 -->
<g id="edge21" class="edge">
<title>140223433559872&#45;&gt;140223433471408</title>
<path fill="none" stroke="black" d="M2371.03,-168C2378.7,-168 2387.45,-168 2396.42,-168"/>
<polygon fill="black" stroke="black" points="2396.58,-171.5 2406.58,-168 2396.58,-164.5 2396.58,-171.5"/>
</g>
<!-- 140223433532656 -->
<g id="node25" class="node">
<title>140223433532656</title>
<polygon fill="none" stroke="black" points="4707,-163 4575,-163 4575,-127 4707,-127 4707,-163"/>
<text text-anchor="middle" x="4641" y="-141.9" font-family="Times,serif" font-size="12.00">Rechnung erstellen</text>
</g>
<!-- 140223433533616&#45;&gt;140223433532656 -->
<g id="edge28" class="edge">
<title>140223433533616&#45;&gt;140223433532656</title>
<path fill="none" stroke="black" d="M4539.37,-145C4547.33,-145 4555.96,-145 4564.69,-145"/>
<polygon fill="black" stroke="black" points="4564.96,-148.5 4574.96,-145 4564.96,-141.5 4564.96,-148.5"/>
</g>
<!-- 140223433534144 -->
<g id="node26" class="node">
<title>140223433534144</title>
<polygon fill="none" stroke="black" points="2992,-117 2965,-99 2992,-81 3019,-99 2992,-117"/>
<text text-anchor="middle" x="2992" y="-95.9" font-family="Times,serif" font-size="12.00">X</text>
</g>
<!-- 140223433510864&#45;&gt;140223433534144 -->
<g id="edge26" class="edge">
<title>140223433510864&#45;&gt;140223433534144</title>
<path fill="none" stroke="black" d="M2890.75,-99C2912.15,-99 2935.7,-99 2954.6,-99"/>
<polygon fill="black" stroke="black" points="2954.86,-102.5 2964.86,-99 2954.86,-95.5 2954.86,-102.5"/>
</g>
<!-- 140223433556320 -->
<g id="node27" class="node">
<title>140223433556320</title>
<polygon fill="none" stroke="black" points="2580,-186 2553,-168 2580,-150 2607,-168 2580,-186"/>
<text text-anchor="middle" x="2580" y="-164.9" font-family="Times,serif" font-size="12.00">X</text>
</g>
<!-- 140223433471408&#45;&gt;140223433556320 -->
<g id="edge25" class="edge">
<title>140223433471408&#45;&gt;140223433556320</title>
<path fill="none" stroke="black" d="M2517.26,-168C2525.87,-168 2534.59,-168 2542.66,-168"/>
<polygon fill="black" stroke="black" points="2542.83,-171.5 2552.83,-168 2542.83,-164.5 2542.83,-171.5"/>
</g>
<!-- 140223433472992 -->
<g id="node24" class="node">
<title>140223433472992</title>
<polygon fill="none" stroke="black" points="2191,-140 1943,-140 1943,-104 2191,-104 2191,-140"/>
<text text-anchor="middle" x="2067" y="-118.9" font-family="Times,serif" font-size="12.00">produkt kann nicht hergestellt werden</text>
</g>
<!-- 140223433556704&#45;&gt;140223433472992 -->
<g id="edge27" class="edge">
<title>140223433556704&#45;&gt;140223433472992</title>
<path fill="none" stroke="black" d="M1906.34,-118.55C1913.9,-118.71 1922.77,-118.9 1932.37,-119.11"/>
<polygon fill="black" stroke="black" points="1932.56,-122.62 1942.63,-119.33 1932.71,-115.62 1932.56,-122.62"/>
</g>
<!-- 140223433557616 -->
<g id="node30" class="node">
<title>140223433557616</title>
<polygon fill="none" stroke="black" points="2254,-140 2227,-122 2254,-104 2281,-122 2254,-140"/>
<text text-anchor="middle" x="2254" y="-118.9" font-family="Times,serif" font-size="12.00">X</text>
</g>
<!-- 140223433472992&#45;&gt;140223433557616 -->
<g id="edge32" class="edge">
<title>140223433472992&#45;&gt;140223433557616</title>
<path fill="none" stroke="black" d="M2191.14,-122C2200.29,-122 2208.98,-122 2216.81,-122"/>
<polygon fill="black" stroke="black" points="2216.9,-125.5 2226.9,-122 2216.9,-118.5 2216.9,-125.5"/>
</g>
<!-- 140223433188304 -->
<g id="node28" class="node">
<title>140223433188304</title>
<polygon fill="none" stroke="black" points="4888,-163 4743,-163 4743,-127 4888,-127 4888,-163"/>
<text text-anchor="middle" x="4815.5" y="-141.9" font-family="Times,serif" font-size="12.00">Bestellung versenden</text>
</g>
<!-- 140223433532656&#45;&gt;140223433188304 -->
<g id="edge34" class="edge">
<title>140223433532656&#45;&gt;140223433188304</title>
<path fill="none" stroke="black" d="M4707.21,-145C4715.58,-145 4724.23,-145 4732.82,-145"/>
<polygon fill="black" stroke="black" points="4732.85,-148.5 4742.85,-145 4732.85,-141.5 4732.85,-148.5"/>
</g>
<!-- 140223433534144&#45;&gt;140223433556704 -->
<g id="edge31" class="edge">
<title>140223433534144&#45;&gt;140223433556704</title>
<path fill="none" stroke="black" d="M2976.78,-90.79C2964.56,-84.24 2946.24,-75.59 2929,-72 2726.23,-29.76 2670.12,-76 2463,-76 2253,-76 2253,-76 2253,-76 2114.96,-76 2078.05,-66.47 1943,-95 1930.44,-97.65 1917.03,-102.37 1905.91,-106.85"/>
<polygon fill="black" stroke="black" points="1904.29,-103.73 1896.42,-110.83 1907,-110.19 1904.29,-103.73"/>
</g>
<!-- 140223433533664 -->
<g id="node29" class="node">
<title>140223433533664</title>
<polygon fill="none" stroke="black" points="3082,-140 3055,-122 3082,-104 3109,-122 3082,-140"/>
<text text-anchor="middle" x="3082" y="-118.9" font-family="Times,serif" font-size="12.00">+</text>
</g>
<!-- 140223433534144&#45;&gt;140223433533664 -->
<g id="edge33" class="edge">
<title>140223433534144&#45;&gt;140223433533664</title>
<path fill="none" stroke="black" d="M3012.09,-103.99C3023.82,-107.06 3039.07,-111.04 3052.24,-114.48"/>
<polygon fill="black" stroke="black" points="3051.68,-117.96 3062.24,-117.1 3053.45,-111.18 3051.68,-117.96"/>
</g>
<!-- 140223433556320&#45;&gt;140223433559104 -->
<g id="edge29" class="edge">
<title>140223433556320&#45;&gt;140223433559104</title>
<path fill="none" stroke="black" d="M2598.39,-174.12C2610.88,-178.53 2627.96,-184.54 2642.2,-189.56"/>
<polygon fill="black" stroke="black" points="2641.35,-192.97 2651.95,-192.99 2643.68,-186.37 2641.35,-192.97"/>
</g>
<!-- 140223433556320&#45;&gt;140223433556416 -->
<g id="edge30" class="edge">
<title>140223433556320&#45;&gt;140223433556416</title>
<path fill="none" stroke="black" d="M2593.24,-158.41C2607.55,-147.18 2631.48,-128.42 2648.61,-114.99"/>
<polygon fill="black" stroke="black" points="2651.16,-117.44 2656.87,-108.51 2646.84,-111.93 2651.16,-117.44"/>
</g>
<!-- 140223433471120 -->
<g id="node31" class="node">
<title>140223433471120</title>
<polygon fill="none" stroke="black" points="5068,-163 4924,-163 4924,-127 5068,-127 5068,-163"/>
<text text-anchor="middle" x="4996" y="-141.9" font-family="Times,serif" font-size="12.00">die Rechnung senden</text>
</g>
<!-- 140223433188304&#45;&gt;140223433471120 -->
<g id="edge38" class="edge">
<title>140223433188304&#45;&gt;140223433471120</title>
<path fill="none" stroke="black" d="M4888.07,-145C4896.58,-145 4905.31,-145 4913.93,-145"/>
<polygon fill="black" stroke="black" points="4913.99,-148.5 4923.99,-145 4913.99,-141.5 4913.99,-148.5"/>
</g>
<!-- 140223433507168 -->
<g id="node32" class="node">
<title>140223433507168</title>
<polygon fill="none" stroke="black" points="3299,-140 3145,-140 3145,-104 3299,-104 3299,-140"/>
<text text-anchor="middle" x="3222" y="-118.9" font-family="Times,serif" font-size="12.00">Stornierung anfordern</text>
</g>
<!-- 140223433533664&#45;&gt;140223433507168 -->
<g id="edge37" class="edge">
<title>140223433533664&#45;&gt;140223433507168</title>
<path fill="none" stroke="black" d="M3109.28,-122C3116.86,-122 3125.58,-122 3134.72,-122"/>
<polygon fill="black" stroke="black" points="3134.79,-125.5 3144.79,-122 3134.79,-118.5 3134.79,-125.5"/>
</g>
<!-- 140223433557616&#45;&gt;140223433559872 -->
<g id="edge35" class="edge">
<title>140223433557616&#45;&gt;140223433559872</title>
<path fill="none" stroke="black" d="M2269.93,-129.8C2283.41,-136.85 2303.48,-147.34 2319.18,-155.55"/>
<polygon fill="black" stroke="black" points="2317.81,-158.78 2328.29,-160.31 2321.05,-152.58 2317.81,-158.78"/>
</g>
<!-- 140223433557616&#45;&gt;140223433533664 -->
<g id="edge36" class="edge">
<title>140223433557616&#45;&gt;140223433533664</title>
<path fill="none" stroke="black" d="M2280.07,-122.81C2375.96,-125.78 2728.67,-135.36 3019,-126 3028.32,-125.7 3038.42,-125.15 3047.7,-124.54"/>
<polygon fill="black" stroke="black" points="3048.02,-128.03 3057.76,-123.86 3047.54,-121.05 3048.02,-128.03"/>
</g>
<!-- 140223433240480 -->
<g id="node39" class="node">
<title>140223433240480</title>
<ellipse fill="orange" stroke="black" cx="5122" cy="-145" rx="18" ry="18"/>
</g>
<!-- 140223433471120&#45;&gt;140223433240480 -->
<g id="edge40" class="edge">
<title>140223433471120&#45;&gt;140223433240480</title>
<path fill="none" stroke="black" d="M5068.05,-145C5077.17,-145 5086.03,-145 5093.8,-145"/>
<polygon fill="black" stroke="black" points="5093.99,-148.5 5103.99,-145 5093.99,-141.5 5093.99,-148.5"/>
</g>
<!-- 140223433187632 -->
<g id="node33" class="node">
<title>140223433187632</title>
<polygon fill="none" stroke="black" points="3555,-140 3335,-140 3335,-104 3555,-104 3555,-140"/>
<text text-anchor="middle" x="3445" y="-118.9" font-family="Times,serif" font-size="12.00">Antwort zur Stornierung erhalten</text>
</g>
<!-- 140223433507168&#45;&gt;140223433187632 -->
<g id="edge39" class="edge">
<title>140223433507168&#45;&gt;140223433187632</title>
<path fill="none" stroke="black" d="M3299.06,-122C3307.4,-122 3316.04,-122 3324.75,-122"/>
<polygon fill="black" stroke="black" points="3324.99,-125.5 3334.99,-122 3324.99,-118.5 3324.99,-125.5"/>
</g>
<!-- 140223433556800 -->
<g id="node34" class="node">
<title>140223433556800</title>
<polygon fill="none" stroke="black" points="3618,-140 3591,-122 3618,-104 3645,-122 3618,-140"/>
<text text-anchor="middle" x="3618" y="-118.9" font-family="Times,serif" font-size="12.00">X</text>
</g>
<!-- 140223433187632&#45;&gt;140223433556800 -->
<g id="edge41" class="edge">
<title>140223433187632&#45;&gt;140223433556800</title>
<path fill="none" stroke="black" d="M3555.27,-122C3564.27,-122 3572.88,-122 3580.68,-122"/>
<polygon fill="black" stroke="black" points="3580.75,-125.5 3590.75,-122 3580.75,-118.5 3580.75,-125.5"/>
</g>
<!-- 140223433506880 -->
<g id="node35" class="node">
<title>140223433506880</title>
<polygon fill="none" stroke="black" points="3915,-108 3681,-108 3681,-72 3915,-72 3915,-108"/>
<text text-anchor="middle" x="3798" y="-86.9" font-family="Times,serif" font-size="12.00">Antwort zu Ersatz Angebot erhalten</text>
</g>
<!-- 140223433556800&#45;&gt;140223433506880 -->
<g id="edge42" class="edge">
<title>140223433556800&#45;&gt;140223433506880</title>
<path fill="none" stroke="black" d="M3639.77,-118.27C3652.07,-116.05 3668.72,-113.06 3686.6,-109.85"/>
<polygon fill="black" stroke="black" points="3687.41,-113.26 3696.63,-108.04 3686.17,-106.37 3687.41,-113.26"/>
</g>
<!-- 140223433533952 -->
<g id="node36" class="node">
<title>140223433533952</title>
<polygon fill="none" stroke="black" points="3978,-140 3951,-122 3978,-104 4005,-122 3978,-140"/>
<text text-anchor="middle" x="3978" y="-118.9" font-family="Times,serif" font-size="12.00">X</text>
</g>
<!-- 140223433556800&#45;&gt;140223433533952 -->
<g id="edge43" class="edge">
<title>140223433556800&#45;&gt;140223433533952</title>
<path fill="none" stroke="black" d="M3645.03,-122C3707.91,-122 3868.19,-122 3940.56,-122"/>
<polygon fill="black" stroke="black" points="3940.58,-125.5 3950.58,-122 3940.58,-118.5 3940.58,-125.5"/>
</g>
<!-- 140223433506880&#45;&gt;140223433533952 -->
<g id="edge44" class="edge">
<title>140223433506880&#45;&gt;140223433533952</title>
<path fill="none" stroke="black" d="M3899.19,-108.01C3916.28,-111.08 3932.81,-114.06 3946.21,-116.46"/>
<polygon fill="black" stroke="black" points="3945.77,-119.94 3956.23,-118.27 3947.01,-113.05 3945.77,-119.94"/>
</g>
<!-- 140223433441968 -->
<g id="node37" class="node">
<title>140223433441968</title>
<polygon fill="none" stroke="black" points="4243,-140 4041,-140 4041,-104 4243,-104 4243,-140"/>
<text text-anchor="middle" x="4142" y="-118.9" font-family="Times,serif" font-size="12.00">produkt von der liste streichen</text>
</g>
<!-- 140223433533952&#45;&gt;140223433441968 -->
<g id="edge45" class="edge">
<title>140223433533952&#45;&gt;140223433441968</title>
<path fill="none" stroke="black" d="M4005.03,-122C4012.52,-122 4021.19,-122 4030.46,-122"/>
<polygon fill="black" stroke="black" points="4030.73,-125.5 4040.73,-122 4030.73,-118.5 4030.73,-125.5"/>
</g>
<!-- 140223433559200 -->
<g id="node38" class="node">
<title>140223433559200</title>
<polygon fill="none" stroke="black" points="4306,-140 4279,-122 4306,-104 4333,-122 4306,-140"/>
<text text-anchor="middle" x="4306" y="-118.9" font-family="Times,serif" font-size="12.00">X</text>
</g>
<!-- 140223433441968&#45;&gt;140223433559200 -->
<g id="edge46" class="edge">
<title>140223433441968&#45;&gt;140223433559200</title>
<path fill="none" stroke="black" d="M4243.29,-122C4252.28,-122 4260.93,-122 4268.77,-122"/>
<polygon fill="black" stroke="black" points="4268.91,-125.5 4278.91,-122 4268.91,-118.5 4268.91,-125.5"/>
</g>
<!-- 140223433559200&#45;&gt;140223433559824 -->
<g id="edge47" class="edge">
<title>140223433559200&#45;&gt;140223433559824</title>
<path fill="none" stroke="black" d="M4292,-113.23C4249.24,-85.25 4108.32,0 3979,0 1097,0 1097,0 1097,0 918.05,0 727.53,-127.18 666.23,-171.77"/>
<polygon fill="black" stroke="black" points="664.11,-168.98 658.14,-177.73 668.26,-174.62 664.11,-168.98"/>
</g>
<!-- 140223433559200&#45;&gt;140223433534048 -->
<g id="edge48" class="edge">
<title>140223433559200&#45;&gt;140223433534048</title>
<path fill="none" stroke="black" d="M4326.09,-126.99C4337.82,-130.06 4353.07,-134.04 4366.24,-137.48"/>
<polygon fill="black" stroke="black" points="4365.68,-140.96 4376.24,-140.1 4367.45,-134.18 4365.68,-140.96"/>
</g>
</g>
</svg>
