<?xml version="1.0" encoding="UTF-8" standalone="no"?>
<!DOCTYPE svg PUBLIC "-//W3C//DTD SVG 1.1//EN"
 "http://www.w3.org/Graphics/SVG/1.1/DTD/svg11.dtd">
<!-- Generated by graphviz version 2.43.0 (0)
 -->
<!-- Title: G Pages: 1 -->
<svg width="840pt" height="1523pt"
 viewBox="0.00 0.00 840.00 1523.00" xmlns="http://www.w3.org/2000/svg" xmlns:xlink="http://www.w3.org/1999/xlink">
<g id="graph0" class="graph" transform="scale(1 1) rotate(0) translate(4 1519)">
<title>G</title>
<polygon fill="white" stroke="transparent" points="-4,4 -4,-1519 836,-1519 836,4 -4,4"/>
<!-- 22e9a889&#45;413b&#45;42d8&#45;a29d&#45;c3724e26db6c -->
<g id="node1" class="node">
<title>22e9a889&#45;413b&#45;42d8&#45;a29d&#45;c3724e26db6c</title>
<polygon fill="#10eeee" stroke="black" points="762.5,-1341 610.5,-1341 610.5,-1305 762.5,-1305 762.5,-1341"/>
<text text-anchor="middle" x="686.5" y="-1319.3" font-family="Times,serif" font-size="14.00" fill="#000000">14 Tage warten (6)</text>
</g>
<!-- 7269b8c7&#45;8cce&#45;4d80&#45;bbdc&#45;25939792da81 -->
<g id="node2" class="node">
<title>7269b8c7&#45;8cce&#45;4d80&#45;bbdc&#45;25939792da81</title>
<polygon fill="#14eaea" stroke="black" points="576,-1254 311,-1254 311,-1218 576,-1218 576,-1254"/>
<text text-anchor="middle" x="443.5" y="-1232.3" font-family="Times,serif" font-size="14.00" fill="#000000">für die Bestellung reservieren (10)</text>
</g>
<!-- 22e9a889&#45;413b&#45;42d8&#45;a29d&#45;c3724e26db6c&#45;&gt;7269b8c7&#45;8cce&#45;4d80&#45;bbdc&#45;25939792da81 -->
<g id="edge1" class="edge">
<title>22e9a889&#45;413b&#45;42d8&#45;a29d&#45;c3724e26db6c&#45;&gt;7269b8c7&#45;8cce&#45;4d80&#45;bbdc&#45;25939792da81</title>
<path fill="none" stroke="#000000" stroke-width="1.13" d="M637.62,-1304.9C598.48,-1291.21 543.47,-1271.97 502,-1257.46"/>
<polygon fill="#000000" stroke="#000000" stroke-width="1.13" points="502.9,-1254.07 492.3,-1254.07 500.59,-1260.68 502.9,-1254.07"/>
<text text-anchor="middle" x="584.5" y="-1275.8" font-family="Times,serif" font-size="14.00" fill="#000000">3</text>
</g>
<!-- 17c78447&#45;94f8&#45;4fa6&#45;8be3&#45;b7746348b387 -->
<g id="node3" class="node">
<title>17c78447&#45;94f8&#45;4fa6&#45;8be3&#45;b7746348b387</title>
<polygon fill="#10eeee" stroke="black" points="637.5,-906 475.5,-906 475.5,-870 637.5,-870 637.5,-906"/>
<text text-anchor="middle" x="556.5" y="-884.3" font-family="Times,serif" font-size="14.00" fill="#000000">produkt geliefert (6)</text>
</g>
<!-- 22e9a889&#45;413b&#45;42d8&#45;a29d&#45;c3724e26db6c&#45;&gt;17c78447&#45;94f8&#45;4fa6&#45;8be3&#45;b7746348b387 -->
<g id="edge2" class="edge">
<title>22e9a889&#45;413b&#45;42d8&#45;a29d&#45;c3724e26db6c&#45;&gt;17c78447&#45;94f8&#45;4fa6&#45;8be3&#45;b7746348b387</title>
<path fill="none" stroke="#000000" stroke-width="1.1" d="M692.62,-1304.99C698.17,-1288.01 705.5,-1261.04 705.5,-1237 705.5,-1237 705.5,-1237 705.5,-974 705.5,-941.48 678.39,-921.23 647.29,-908.71"/>
<polygon fill="#000000" stroke="#000000" stroke-width="1.1" points="648.13,-905.29 637.54,-905.07 645.68,-911.85 648.13,-905.29"/>
<text text-anchor="middle" x="710.5" y="-1101.8" font-family="Times,serif" font-size="14.00" fill="#000000">2</text>
</g>
<!-- f401aa92&#45;e3f8&#45;4503&#45;88df&#45;456d9ee057d7 -->
<g id="node11" class="node">
<title>f401aa92&#45;e3f8&#45;4503&#45;88df&#45;456d9ee057d7</title>
<polygon fill="#17e7e7" stroke="black" points="458.5,-1167 172.5,-1167 172.5,-1131 458.5,-1131 458.5,-1167"/>
<text text-anchor="middle" x="315.5" y="-1145.3" font-family="Times,serif" font-size="14.00" fill="#000000">aus der Liste ein Produkt wahlen (13)</text>
</g>
<!-- 7269b8c7&#45;8cce&#45;4d80&#45;bbdc&#45;25939792da81&#45;&gt;f401aa92&#45;e3f8&#45;4503&#45;88df&#45;456d9ee057d7 -->
<g id="edge3" class="edge">
<title>7269b8c7&#45;8cce&#45;4d80&#45;bbdc&#45;25939792da81&#45;&gt;f401aa92&#45;e3f8&#45;4503&#45;88df&#45;456d9ee057d7</title>
<path fill="none" stroke="#000000" stroke-width="1.18" d="M417.6,-1217.8C398.08,-1204.84 371.13,-1186.94 349.82,-1172.79"/>
<polygon fill="#000000" stroke="#000000" stroke-width="1.18" points="351.63,-1169.79 341.36,-1167.18 347.76,-1175.62 351.63,-1169.79"/>
<text text-anchor="middle" x="391.5" y="-1188.8" font-family="Times,serif" font-size="14.00" fill="#000000">6</text>
</g>
<!-- c31bd7b9&#45;7ff3&#45;4d3a&#45;9401&#45;352eb61eabab -->
<g id="node18" class="node">
<title>c31bd7b9&#45;7ff3&#45;4d3a&#45;9401&#45;352eb61eabab</title>
<polygon fill="#0ef0f0" stroke="black" points="217.5,-384 103.5,-384 103.5,-348 217.5,-348 217.5,-384"/>
<text text-anchor="middle" x="160.5" y="-362.3" font-family="Times,serif" font-size="14.00" fill="#000000">verpacken (5)</text>
</g>
<!-- 7269b8c7&#45;8cce&#45;4d80&#45;bbdc&#45;25939792da81&#45;&gt;c31bd7b9&#45;7ff3&#45;4d3a&#45;9401&#45;352eb61eabab -->
<g id="edge4" class="edge">
<title>7269b8c7&#45;8cce&#45;4d80&#45;bbdc&#45;25939792da81&#45;&gt;c31bd7b9&#45;7ff3&#45;4d3a&#45;9401&#45;352eb61eabab</title>
<path fill="none" stroke="#000000" stroke-width="1.15" d="M310.61,-1221.07C230.76,-1208.87 144.5,-1187.1 144.5,-1150 144.5,-1150 144.5,-1150 144.5,-452 144.5,-432.41 148.65,-410.72 152.73,-394.15"/>
<polygon fill="#000000" stroke="#000000" stroke-width="1.15" points="156.22,-394.64 155.35,-384.08 149.44,-392.88 156.22,-394.64"/>
<text text-anchor="middle" x="149.5" y="-797.3" font-family="Times,serif" font-size="14.00" fill="#000000">4</text>
</g>
<!-- b8ae1f1a&#45;da02&#45;48a1&#45;adb4&#45;5650c0217ae5 -->
<g id="node10" class="node">
<title>b8ae1f1a&#45;da02&#45;48a1&#45;adb4&#45;5650c0217ae5</title>
<polygon fill="#10eeee" stroke="black" points="832,-819 515,-819 515,-783 832,-783 832,-819"/>
<text text-anchor="middle" x="673.5" y="-797.3" font-family="Times,serif" font-size="14.00" fill="#000000">produkt kann nicht hergestellt werden (6)</text>
</g>
<!-- 17c78447&#45;94f8&#45;4fa6&#45;8be3&#45;b7746348b387&#45;&gt;b8ae1f1a&#45;da02&#45;48a1&#45;adb4&#45;5650c0217ae5 -->
<g id="edge6" class="edge">
<title>17c78447&#45;94f8&#45;4fa6&#45;8be3&#45;b7746348b387&#45;&gt;b8ae1f1a&#45;da02&#45;48a1&#45;adb4&#45;5650c0217ae5</title>
<path fill="none" stroke="#000000" stroke-width="1.15" d="M580.18,-869.8C597.86,-856.95 622.22,-839.26 641.61,-825.17"/>
<polygon fill="#000000" stroke="#000000" stroke-width="1.15" points="643.83,-827.88 649.86,-819.18 639.71,-822.22 643.83,-827.88"/>
<text text-anchor="middle" x="626.5" y="-840.8" font-family="Times,serif" font-size="14.00" fill="#000000">4</text>
</g>
<!-- 3bf47cea&#45;9fae&#45;4ef9&#45;b417&#45;d55a5594ecdd -->
<g id="node17" class="node">
<title>3bf47cea&#45;9fae&#45;4ef9&#45;b417&#45;d55a5594ecdd</title>
<polygon fill="#09f5f5" stroke="black" points="587.5,-732 385.5,-732 385.5,-696 587.5,-696 587.5,-732"/>
<text text-anchor="middle" x="486.5" y="-710.3" font-family="Times,serif" font-size="14.00" fill="#000000">Stornierung anfordern (3)</text>
</g>
<!-- 17c78447&#45;94f8&#45;4fa6&#45;8be3&#45;b7746348b387&#45;&gt;3bf47cea&#45;9fae&#45;4ef9&#45;b417&#45;d55a5594ecdd -->
<g id="edge5" class="edge">
<title>17c78447&#45;94f8&#45;4fa6&#45;8be3&#45;b7746348b387&#45;&gt;3bf47cea&#45;9fae&#45;4ef9&#45;b417&#45;d55a5594ecdd</title>
<path fill="none" stroke="#000000" stroke-width="1.1" d="M535.82,-869.95C522.15,-857.4 505.21,-839.08 496.5,-819 485.94,-794.66 484.18,-764.18 484.62,-742.52"/>
<polygon fill="#000000" stroke="#000000" stroke-width="1.1" points="488.12,-742.49 484.99,-732.37 481.12,-742.24 488.12,-742.49"/>
<text text-anchor="middle" x="501.5" y="-797.3" font-family="Times,serif" font-size="14.00" fill="#000000">2</text>
</g>
<!-- 0af1e337&#45;d4ec&#45;4dde&#45;885c&#45;01f3c35eeaca -->
<g id="node4" class="node">
<title>0af1e337&#45;d4ec&#45;4dde&#45;885c&#45;01f3c35eeaca</title>
<polygon fill="#00ffff" stroke="black" points="631,-558 332,-558 332,-522 631,-522 631,-558"/>
<text text-anchor="middle" x="481.5" y="-536.3" font-family="Times,serif" font-size="14.00" fill="#000000">Antwort zu Ersatz Angebot erhalten (1)</text>
</g>
<!-- d186387a&#45;1645&#45;443e&#45;8511&#45;35003e33b3d1 -->
<g id="node5" class="node">
<title>d186387a&#45;1645&#45;443e&#45;8511&#45;35003e33b3d1</title>
<polygon fill="#09f5f5" stroke="black" points="434.5,-471 172.5,-471 172.5,-435 434.5,-435 434.5,-471"/>
<text text-anchor="middle" x="303.5" y="-449.3" font-family="Times,serif" font-size="14.00" fill="#000000">produkt von der liste streichen (3)</text>
</g>
<!-- 0af1e337&#45;d4ec&#45;4dde&#45;885c&#45;01f3c35eeaca&#45;&gt;d186387a&#45;1645&#45;443e&#45;8511&#45;35003e33b3d1 -->
<g id="edge7" class="edge">
<title>0af1e337&#45;d4ec&#45;4dde&#45;885c&#45;01f3c35eeaca&#45;&gt;d186387a&#45;1645&#45;443e&#45;8511&#45;35003e33b3d1</title>
<path fill="none" stroke="#000000" stroke-width="1.06" d="M445.48,-521.8C417.52,-508.45 378.6,-489.86 348.57,-475.52"/>
<polygon fill="#000000" stroke="#000000" stroke-width="1.06" points="349.7,-472.18 339.16,-471.03 346.68,-478.5 349.7,-472.18"/>
<text text-anchor="middle" x="407.5" y="-492.8" font-family="Times,serif" font-size="14.00" fill="#000000">1</text>
</g>
<!-- d186387a&#45;1645&#45;443e&#45;8511&#45;35003e33b3d1&#45;&gt;f401aa92&#45;e3f8&#45;4503&#45;88df&#45;456d9ee057d7 -->
<g id="edge8" class="edge">
<title>d186387a&#45;1645&#45;443e&#45;8511&#45;35003e33b3d1&#45;&gt;f401aa92&#45;e3f8&#45;4503&#45;88df&#45;456d9ee057d7</title>
<path fill="none" stroke="#000000" stroke-width="1.1" d="M286.71,-471.3C272.87,-487.44 255.5,-512.9 255.5,-539 255.5,-1063 255.5,-1063 255.5,-1063 255.5,-1086.59 271.12,-1108.24 286.42,-1123.78"/>
<polygon fill="#000000" stroke="#000000" stroke-width="1.1" points="284.2,-1126.5 293.84,-1130.91 289.05,-1121.46 284.2,-1126.5"/>
<text text-anchor="middle" x="260.5" y="-797.3" font-family="Times,serif" font-size="14.00" fill="#000000">2</text>
</g>
<!-- d186387a&#45;1645&#45;443e&#45;8511&#45;35003e33b3d1&#45;&gt;c31bd7b9&#45;7ff3&#45;4d3a&#45;9401&#45;352eb61eabab -->
<g id="edge9" class="edge">
<title>d186387a&#45;1645&#45;443e&#45;8511&#45;35003e33b3d1&#45;&gt;c31bd7b9&#45;7ff3&#45;4d3a&#45;9401&#45;352eb61eabab</title>
<path fill="none" stroke="#000000" stroke-width="1.06" d="M274.56,-434.8C252.56,-421.72 222.11,-403.62 198.21,-389.41"/>
<polygon fill="#000000" stroke="#000000" stroke-width="1.06" points="199.78,-386.28 189.4,-384.18 196.2,-392.29 199.78,-386.28"/>
<text text-anchor="middle" x="245.5" y="-405.8" font-family="Times,serif" font-size="14.00" fill="#000000">1</text>
</g>
<!-- 1d35ceb8&#45;a236&#45;467c&#45;8334&#45;50ccc86c7456 -->
<g id="node6" class="node">
<title>1d35ceb8&#45;a236&#45;467c&#45;8334&#45;50ccc86c7456</title>
<polygon fill="#09f5f5" stroke="black" points="622,-645 341,-645 341,-609 622,-609 622,-645"/>
<text text-anchor="middle" x="481.5" y="-623.3" font-family="Times,serif" font-size="14.00" fill="#000000">Antwort zur Stornierung erhalten (3)</text>
</g>
<!-- 1d35ceb8&#45;a236&#45;467c&#45;8334&#45;50ccc86c7456&#45;&gt;0af1e337&#45;d4ec&#45;4dde&#45;885c&#45;01f3c35eeaca -->
<g id="edge10" class="edge">
<title>1d35ceb8&#45;a236&#45;467c&#45;8334&#45;50ccc86c7456&#45;&gt;0af1e337&#45;d4ec&#45;4dde&#45;885c&#45;01f3c35eeaca</title>
<path fill="none" stroke="#000000" stroke-width="1.06" d="M481.5,-608.8C481.5,-597.16 481.5,-581.55 481.5,-568.24"/>
<polygon fill="#000000" stroke="#000000" stroke-width="1.06" points="485,-568.18 481.5,-558.18 478,-568.18 485,-568.18"/>
<text text-anchor="middle" x="486.5" y="-579.8" font-family="Times,serif" font-size="14.00" fill="#000000">1</text>
</g>
<!-- 1d35ceb8&#45;a236&#45;467c&#45;8334&#45;50ccc86c7456&#45;&gt;d186387a&#45;1645&#45;443e&#45;8511&#45;35003e33b3d1 -->
<g id="edge11" class="edge">
<title>1d35ceb8&#45;a236&#45;467c&#45;8334&#45;50ccc86c7456&#45;&gt;d186387a&#45;1645&#45;443e&#45;8511&#45;35003e33b3d1</title>
<path fill="none" stroke="#000000" stroke-width="1.1" d="M390.9,-608.97C361.77,-598.95 332.22,-583.09 313.5,-558 297.11,-536.04 296.58,-503.78 298.9,-481.02"/>
<polygon fill="#000000" stroke="#000000" stroke-width="1.1" points="302.39,-481.37 300.17,-471.01 295.44,-480.49 302.39,-481.37"/>
<text text-anchor="middle" x="318.5" y="-536.3" font-family="Times,serif" font-size="14.00" fill="#000000">2</text>
</g>
<!-- 577753bc&#45;4789&#45;4dc8&#45;8cc8&#45;840af237ae62 -->
<g id="node7" class="node">
<title>577753bc&#45;4789&#45;4dc8&#45;8cc8&#45;840af237ae62</title>
<polygon fill="#0ef0f0" stroke="black" points="210.5,-1341 28.5,-1341 28.5,-1305 210.5,-1305 210.5,-1341"/>
<text text-anchor="middle" x="119.5" y="-1319.3" font-family="Times,serif" font-size="14.00" fill="#000000">Bestellung erhalten (5)</text>
</g>
<!-- 5571c3da&#45;bbc2&#45;432d&#45;934d&#45;f87dfe1a64f1 -->
<g id="node8" class="node">
<title>5571c3da&#45;bbc2&#45;432d&#45;934d&#45;f87dfe1a64f1</title>
<polygon fill="#0ef0f0" stroke="black" points="204,-1254 35,-1254 35,-1218 204,-1218 204,-1254"/>
<text text-anchor="middle" x="119.5" y="-1232.3" font-family="Times,serif" font-size="14.00" fill="#000000">Bestellung prüfen (5)</text>
</g>
<!-- 577753bc&#45;4789&#45;4dc8&#45;8cc8&#45;840af237ae62&#45;&gt;5571c3da&#45;bbc2&#45;432d&#45;934d&#45;f87dfe1a64f1 -->
<g id="edge12" class="edge">
<title>577753bc&#45;4789&#45;4dc8&#45;8cc8&#45;840af237ae62&#45;&gt;5571c3da&#45;bbc2&#45;432d&#45;934d&#45;f87dfe1a64f1</title>
<path fill="none" stroke="#000000" stroke-width="1.16" d="M119.5,-1304.8C119.5,-1293.16 119.5,-1277.55 119.5,-1264.24"/>
<polygon fill="#000000" stroke="#000000" stroke-width="1.16" points="123,-1264.18 119.5,-1254.18 116,-1264.18 123,-1264.18"/>
<text text-anchor="middle" x="124.5" y="-1275.8" font-family="Times,serif" font-size="14.00" fill="#000000">5</text>
</g>
<!-- 5571c3da&#45;bbc2&#45;432d&#45;934d&#45;f87dfe1a64f1&#45;&gt;f401aa92&#45;e3f8&#45;4503&#45;88df&#45;456d9ee057d7 -->
<g id="edge13" class="edge">
<title>5571c3da&#45;bbc2&#45;432d&#45;934d&#45;f87dfe1a64f1&#45;&gt;f401aa92&#45;e3f8&#45;4503&#45;88df&#45;456d9ee057d7</title>
<path fill="none" stroke="#000000" stroke-width="1.16" d="M159.16,-1217.8C190.22,-1204.33 233.55,-1185.54 266.73,-1171.15"/>
<polygon fill="#000000" stroke="#000000" stroke-width="1.16" points="268.45,-1174.22 276.23,-1167.03 265.66,-1167.8 268.45,-1174.22"/>
<text text-anchor="middle" x="233.5" y="-1188.8" font-family="Times,serif" font-size="14.00" fill="#000000">5</text>
</g>
<!-- 3fee0837&#45;912b&#45;46d7&#45;922d&#45;d286eec627cd -->
<g id="node9" class="node">
<title>3fee0837&#45;912b&#45;46d7&#45;922d&#45;d286eec627cd</title>
<polygon fill="#10eeee" stroke="black" points="677.5,-993 435.5,-993 435.5,-957 677.5,-957 677.5,-993"/>
<text text-anchor="middle" x="556.5" y="-971.3" font-family="Times,serif" font-size="14.00" fill="#000000">Bestellung in Auftrag geben (6)</text>
</g>
<!-- 3fee0837&#45;912b&#45;46d7&#45;922d&#45;d286eec627cd&#45;&gt;22e9a889&#45;413b&#45;42d8&#45;a29d&#45;c3724e26db6c -->
<g id="edge14" class="edge">
<title>3fee0837&#45;912b&#45;46d7&#45;922d&#45;d286eec627cd&#45;&gt;22e9a889&#45;413b&#45;42d8&#45;a29d&#45;c3724e26db6c</title>
<path fill="none" stroke="#000000" stroke-width="1.1" d="M607.45,-993.06C636.63,-1006.39 667.5,-1028.23 667.5,-1061 667.5,-1237 667.5,-1237 667.5,-1237 667.5,-1256.91 672.53,-1278.83 677.41,-1295.42"/>
<polygon fill="#000000" stroke="#000000" stroke-width="1.1" points="674.07,-1296.48 680.38,-1304.99 680.76,-1294.4 674.07,-1296.48"/>
<text text-anchor="middle" x="672.5" y="-1145.3" font-family="Times,serif" font-size="14.00" fill="#000000">2</text>
</g>
<!-- 3fee0837&#45;912b&#45;46d7&#45;922d&#45;d286eec627cd&#45;&gt;17c78447&#45;94f8&#45;4fa6&#45;8be3&#45;b7746348b387 -->
<g id="edge15" class="edge">
<title>3fee0837&#45;912b&#45;46d7&#45;922d&#45;d286eec627cd&#45;&gt;17c78447&#45;94f8&#45;4fa6&#45;8be3&#45;b7746348b387</title>
<path fill="none" stroke="#000000" stroke-width="1.13" d="M556.5,-956.8C556.5,-945.16 556.5,-929.55 556.5,-916.24"/>
<polygon fill="#000000" stroke="#000000" stroke-width="1.13" points="560,-916.18 556.5,-906.18 553,-916.18 560,-916.18"/>
<text text-anchor="middle" x="561.5" y="-927.8" font-family="Times,serif" font-size="14.00" fill="#000000">3</text>
</g>
<!-- 3fee0837&#45;912b&#45;46d7&#45;922d&#45;d286eec627cd&#45;&gt;b8ae1f1a&#45;da02&#45;48a1&#45;adb4&#45;5650c0217ae5 -->
<g id="edge16" class="edge">
<title>3fee0837&#45;912b&#45;46d7&#45;922d&#45;d286eec627cd&#45;&gt;b8ae1f1a&#45;da02&#45;48a1&#45;adb4&#45;5650c0217ae5</title>
<path fill="none" stroke="#000000" stroke-width="1.06" d="M588.85,-956.99C608.31,-945.17 632.03,-927.66 646.5,-906 661.9,-882.94 668.52,-851.59 671.36,-829.35"/>
<polygon fill="#000000" stroke="#000000" stroke-width="1.06" points="674.86,-829.57 672.48,-819.25 667.9,-828.8 674.86,-829.57"/>
<text text-anchor="middle" x="667.5" y="-884.3" font-family="Times,serif" font-size="14.00" fill="#000000">1</text>
</g>
<!-- b8ae1f1a&#45;da02&#45;48a1&#45;adb4&#45;5650c0217ae5&#45;&gt;22e9a889&#45;413b&#45;42d8&#45;a29d&#45;c3724e26db6c -->
<g id="edge17" class="edge">
<title>b8ae1f1a&#45;da02&#45;48a1&#45;adb4&#45;5650c0217ae5&#45;&gt;22e9a889&#45;413b&#45;42d8&#45;a29d&#45;c3724e26db6c</title>
<path fill="none" stroke="#000000" stroke-width="1.15" d="M703.88,-819.09C725.78,-833.9 751.5,-857.56 751.5,-887 751.5,-1237 751.5,-1237 751.5,-1237 751.5,-1261.33 734.49,-1283.01 717.88,-1298.38"/>
<polygon fill="#000000" stroke="#000000" stroke-width="1.15" points="715.55,-1295.77 710.33,-1304.99 720.16,-1301.03 715.55,-1295.77"/>
<text text-anchor="middle" x="756.5" y="-1058.3" font-family="Times,serif" font-size="14.00" fill="#000000">4</text>
</g>
<!-- b8ae1f1a&#45;da02&#45;48a1&#45;adb4&#45;5650c0217ae5&#45;&gt;3bf47cea&#45;9fae&#45;4ef9&#45;b417&#45;d55a5594ecdd -->
<g id="edge18" class="edge">
<title>b8ae1f1a&#45;da02&#45;48a1&#45;adb4&#45;5650c0217ae5&#45;&gt;3bf47cea&#45;9fae&#45;4ef9&#45;b417&#45;d55a5594ecdd</title>
<path fill="none" stroke="#000000" stroke-width="1.06" d="M635.66,-782.8C606.16,-769.39 565.04,-750.7 533.44,-736.34"/>
<polygon fill="#000000" stroke="#000000" stroke-width="1.06" points="534.52,-732.98 523.97,-732.03 531.62,-739.35 534.52,-732.98"/>
<text text-anchor="middle" x="595.5" y="-753.8" font-family="Times,serif" font-size="14.00" fill="#000000">1</text>
</g>
<!-- 29d152eb&#45;3272&#45;4609&#45;bdf1&#45;4cb55e30a44c -->
<g id="node15" class="node">
<title>29d152eb&#45;3272&#45;4609&#45;bdf1&#45;4cb55e30a44c</title>
<polygon fill="#17e7e7" stroke="black" points="639.5,-1080 283.5,-1080 283.5,-1044 639.5,-1044 639.5,-1080"/>
<text text-anchor="middle" x="461.5" y="-1058.3" font-family="Times,serif" font-size="14.00" fill="#000000">Lagerbestand für gewahlte Produkt prüfen (13)</text>
</g>
<!-- f401aa92&#45;e3f8&#45;4503&#45;88df&#45;456d9ee057d7&#45;&gt;29d152eb&#45;3272&#45;4609&#45;bdf1&#45;4cb55e30a44c -->
<g id="edge19" class="edge">
<title>f401aa92&#45;e3f8&#45;4503&#45;88df&#45;456d9ee057d7&#45;&gt;29d152eb&#45;3272&#45;4609&#45;bdf1&#45;4cb55e30a44c</title>
<path fill="none" stroke="#000000" stroke-width="1.24" d="M345.05,-1130.8C367.61,-1117.66 398.87,-1099.46 423.33,-1085.22"/>
<polygon fill="#000000" stroke="#000000" stroke-width="1.24" points="425.12,-1088.23 432,-1080.18 421.6,-1082.18 425.12,-1088.23"/>
<text text-anchor="middle" x="406" y="-1101.8" font-family="Times,serif" font-size="14.00" fill="#000000">13</text>
</g>
<!-- e6e7a07d&#45;1910&#45;4fb0&#45;b038&#45;766b6dc67bd4 -->
<g id="node12" class="node">
<title>e6e7a07d&#45;1910&#45;4fb0&#45;b038&#45;766b6dc67bd4</title>
<polygon fill="#0ef0f0" stroke="black" points="258.5,-210 62.5,-210 62.5,-174 258.5,-174 258.5,-210"/>
<text text-anchor="middle" x="160.5" y="-188.3" font-family="Times,serif" font-size="14.00" fill="#000000">Bestellung versenden (5)</text>
</g>
<!-- c018a794&#45;e06f&#45;47f8&#45;ad31&#45;269e3f12d8c3 -->
<g id="node13" class="node">
<title>c018a794&#45;e06f&#45;47f8&#45;ad31&#45;269e3f12d8c3</title>
<polygon fill="#0ef0f0" stroke="black" points="257.5,-123 63.5,-123 63.5,-87 257.5,-87 257.5,-123"/>
<text text-anchor="middle" x="160.5" y="-101.3" font-family="Times,serif" font-size="14.00" fill="#000000">die Rechnung senden (5)</text>
</g>
<!-- e6e7a07d&#45;1910&#45;4fb0&#45;b038&#45;766b6dc67bd4&#45;&gt;c018a794&#45;e06f&#45;47f8&#45;ad31&#45;269e3f12d8c3 -->
<g id="edge20" class="edge">
<title>e6e7a07d&#45;1910&#45;4fb0&#45;b038&#45;766b6dc67bd4&#45;&gt;c018a794&#45;e06f&#45;47f8&#45;ad31&#45;269e3f12d8c3</title>
<path fill="none" stroke="#000000" stroke-width="1.16" d="M160.5,-173.8C160.5,-162.16 160.5,-146.55 160.5,-133.24"/>
<polygon fill="#000000" stroke="#000000" stroke-width="1.16" points="164,-133.18 160.5,-123.18 157,-133.18 164,-133.18"/>
<text text-anchor="middle" x="165.5" y="-144.8" font-family="Times,serif" font-size="14.00" fill="#000000">5</text>
</g>
<!-- end_0 -->
<g id="node20" class="node">
<title>end_0</title>
<ellipse fill="#ffa500" stroke="#ffa500" cx="160.5" cy="-18" rx="27" ry="18"/>
<text text-anchor="middle" x="160.5" y="-16.1" font-family="Times,serif" font-size="8.00" fill="#ffa500">@@E</text>
</g>
<!-- c018a794&#45;e06f&#45;47f8&#45;ad31&#45;269e3f12d8c3&#45;&gt;end_0 -->
<g id="edge28" class="edge">
<title>c018a794&#45;e06f&#45;47f8&#45;ad31&#45;269e3f12d8c3&#45;&gt;end_0</title>
<path fill="none" stroke="#000000" stroke-width="1.16" d="M160.5,-86.8C160.5,-75.16 160.5,-59.55 160.5,-46.24"/>
<polygon fill="#000000" stroke="#000000" stroke-width="1.16" points="164,-46.18 160.5,-36.18 157,-46.18 164,-46.18"/>
<text text-anchor="middle" x="165.5" y="-57.8" font-family="Times,serif" font-size="14.00" fill="#000000">5</text>
</g>
<!-- af99df4a&#45;4797&#45;4978&#45;a6d2&#45;5acc9ce58fb8 -->
<g id="node14" class="node">
<title>af99df4a&#45;4797&#45;4978&#45;a6d2&#45;5acc9ce58fb8</title>
<polygon fill="#0ef0f0" stroke="black" points="239,-1428 0,-1428 0,-1392 239,-1392 239,-1428"/>
<text text-anchor="middle" x="119.5" y="-1406.3" font-family="Times,serif" font-size="14.00" fill="#000000">Die Bestellung wird erstellt (5)</text>
</g>
<!-- af99df4a&#45;4797&#45;4978&#45;a6d2&#45;5acc9ce58fb8&#45;&gt;577753bc&#45;4789&#45;4dc8&#45;8cc8&#45;840af237ae62 -->
<g id="edge21" class="edge">
<title>af99df4a&#45;4797&#45;4978&#45;a6d2&#45;5acc9ce58fb8&#45;&gt;577753bc&#45;4789&#45;4dc8&#45;8cc8&#45;840af237ae62</title>
<path fill="none" stroke="#000000" stroke-width="1.16" d="M119.5,-1391.8C119.5,-1380.16 119.5,-1364.55 119.5,-1351.24"/>
<polygon fill="#000000" stroke="#000000" stroke-width="1.16" points="123,-1351.18 119.5,-1341.18 116,-1351.18 123,-1351.18"/>
<text text-anchor="middle" x="124.5" y="-1362.8" font-family="Times,serif" font-size="14.00" fill="#000000">5</text>
</g>
<!-- 29d152eb&#45;3272&#45;4609&#45;bdf1&#45;4cb55e30a44c&#45;&gt;7269b8c7&#45;8cce&#45;4d80&#45;bbdc&#45;25939792da81 -->
<g id="edge23" class="edge">
<title>29d152eb&#45;3272&#45;4609&#45;bdf1&#45;4cb55e30a44c&#45;&gt;7269b8c7&#45;8cce&#45;4d80&#45;bbdc&#45;25939792da81</title>
<path fill="none" stroke="#000000" stroke-width="1.19" d="M464.83,-1080.06C468.34,-1100.78 472.69,-1136.7 467.5,-1167 465.08,-1181.12 460.03,-1196.2 455.18,-1208.56"/>
<polygon fill="#000000" stroke="#000000" stroke-width="1.19" points="451.94,-1207.24 451.39,-1217.83 458.42,-1209.89 451.94,-1207.24"/>
<text text-anchor="middle" x="474.5" y="-1145.3" font-family="Times,serif" font-size="14.00" fill="#000000">7</text>
</g>
<!-- 29d152eb&#45;3272&#45;4609&#45;bdf1&#45;4cb55e30a44c&#45;&gt;3fee0837&#45;912b&#45;46d7&#45;922d&#45;d286eec627cd -->
<g id="edge22" class="edge">
<title>29d152eb&#45;3272&#45;4609&#45;bdf1&#45;4cb55e30a44c&#45;&gt;3fee0837&#45;912b&#45;46d7&#45;922d&#45;d286eec627cd</title>
<path fill="none" stroke="#000000" stroke-width="1.18" d="M480.72,-1043.8C494.76,-1031.24 513.97,-1014.05 529.54,-1000.12"/>
<polygon fill="#000000" stroke="#000000" stroke-width="1.18" points="532.19,-1002.45 537.3,-993.18 527.52,-997.24 532.19,-1002.45"/>
<text text-anchor="middle" x="519.5" y="-1014.8" font-family="Times,serif" font-size="14.00" fill="#000000">6</text>
</g>
<!-- dabdd571&#45;697b&#45;421f&#45;9883&#45;4d1ca0a521bb -->
<g id="node16" class="node">
<title>dabdd571&#45;697b&#45;421f&#45;9883&#45;4d1ca0a521bb</title>
<polygon fill="#0ef0f0" stroke="black" points="250,-297 71,-297 71,-261 250,-261 250,-297"/>
<text text-anchor="middle" x="160.5" y="-275.3" font-family="Times,serif" font-size="14.00" fill="#000000">Rechnung erstellen (5)</text>
</g>
<!-- dabdd571&#45;697b&#45;421f&#45;9883&#45;4d1ca0a521bb&#45;&gt;e6e7a07d&#45;1910&#45;4fb0&#45;b038&#45;766b6dc67bd4 -->
<g id="edge24" class="edge">
<title>dabdd571&#45;697b&#45;421f&#45;9883&#45;4d1ca0a521bb&#45;&gt;e6e7a07d&#45;1910&#45;4fb0&#45;b038&#45;766b6dc67bd4</title>
<path fill="none" stroke="#000000" stroke-width="1.16" d="M160.5,-260.8C160.5,-249.16 160.5,-233.55 160.5,-220.24"/>
<polygon fill="#000000" stroke="#000000" stroke-width="1.16" points="164,-220.18 160.5,-210.18 157,-220.18 164,-220.18"/>
<text text-anchor="middle" x="165.5" y="-231.8" font-family="Times,serif" font-size="14.00" fill="#000000">5</text>
</g>
<!-- 3bf47cea&#45;9fae&#45;4ef9&#45;b417&#45;d55a5594ecdd&#45;&gt;1d35ceb8&#45;a236&#45;467c&#45;8334&#45;50ccc86c7456 -->
<g id="edge25" class="edge">
<title>3bf47cea&#45;9fae&#45;4ef9&#45;b417&#45;d55a5594ecdd&#45;&gt;1d35ceb8&#45;a236&#45;467c&#45;8334&#45;50ccc86c7456</title>
<path fill="none" stroke="#000000" stroke-width="1.13" d="M485.49,-695.8C484.8,-684.16 483.89,-668.55 483.1,-655.24"/>
<polygon fill="#000000" stroke="#000000" stroke-width="1.13" points="486.59,-654.95 482.51,-645.18 479.6,-655.36 486.59,-654.95"/>
<text text-anchor="middle" x="488.5" y="-666.8" font-family="Times,serif" font-size="14.00" fill="#000000">3</text>
</g>
<!-- c31bd7b9&#45;7ff3&#45;4d3a&#45;9401&#45;352eb61eabab&#45;&gt;dabdd571&#45;697b&#45;421f&#45;9883&#45;4d1ca0a521bb -->
<g id="edge26" class="edge">
<title>c31bd7b9&#45;7ff3&#45;4d3a&#45;9401&#45;352eb61eabab&#45;&gt;dabdd571&#45;697b&#45;421f&#45;9883&#45;4d1ca0a521bb</title>
<path fill="none" stroke="#000000" stroke-width="1.16" d="M160.5,-347.8C160.5,-336.16 160.5,-320.55 160.5,-307.24"/>
<polygon fill="#000000" stroke="#000000" stroke-width="1.16" points="164,-307.18 160.5,-297.18 157,-307.18 164,-307.18"/>
<text text-anchor="middle" x="165.5" y="-318.8" font-family="Times,serif" font-size="14.00" fill="#000000">5</text>
</g>
<!-- start_0 -->
<g id="node19" class="node">
<title>start_0</title>
<ellipse fill="#32cd32" stroke="#000000" cx="119.5" cy="-1497" rx="27" ry="18"/>
<text text-anchor="middle" x="119.5" y="-1495.1" font-family="Times,serif" font-size="8.00" fill="#32cd32">@@S</text>
</g>
<!-- start_0&#45;&gt;af99df4a&#45;4797&#45;4978&#45;a6d2&#45;5acc9ce58fb8 -->
<g id="edge27" class="edge">
<title>start_0&#45;&gt;af99df4a&#45;4797&#45;4978&#45;a6d2&#45;5acc9ce58fb8</title>
<path fill="none" stroke="#000000" stroke-width="1.16" d="M119.5,-1478.8C119.5,-1467.16 119.5,-1451.55 119.5,-1438.24"/>
<polygon fill="#000000" stroke="#000000" stroke-width="1.16" points="123,-1438.18 119.5,-1428.18 116,-1438.18 123,-1438.18"/>
<text text-anchor="middle" x="124.5" y="-1449.8" font-family="Times,serif" font-size="14.00" fill="#000000">5</text>
</g>
</g>
</svg>
