<?xml version="1.0" encoding="UTF-8" standalone="no"?>
<!DOCTYPE svg PUBLIC "-//W3C//DTD SVG 1.1//EN"
 "http://www.w3.org/Graphics/SVG/1.1/DTD/svg11.dtd">
<!-- Generated by graphviz version 2.43.0 (0)
 -->
<!-- Title: %3 Pages: 1 -->
<svg width="5481pt" height="429pt"
 viewBox="0.00 0.00 5481.00 429.00" xmlns="http://www.w3.org/2000/svg" xmlns:xlink="http://www.w3.org/1999/xlink">
<g id="graph0" class="graph" transform="scale(1 1) rotate(0) translate(4 425)">
<title>%3</title>
<polygon fill="white" stroke="transparent" points="-4,4 -4,-425 5477,-425 5477,4 -4,4"/>
<!-- 140045742027008 -->
<g id="node1" class="node">
<title>140045742027008</title>
<polygon fill="white" stroke="black" points="593,-72 397,-72 397,-36 593,-36 593,-72"/>
<text text-anchor="middle" x="495" y="-50.9" font-family="Times,serif" font-size="12.00">für die Bestellung reservieren</text>
</g>
<!-- 140045741773296 -->
<g id="node37" class="node">
<title>140045741773296</title>
<ellipse fill="white" stroke="black" cx="656" cy="-27" rx="27" ry="27"/>
</g>
<!-- 140045742027008&#45;&gt;140045741773296 -->
<g id="edge14" class="edge">
<title>140045742027008&#45;&gt;140045741773296</title>
<path fill="none" stroke="black" d="M593.07,-37.52C602.33,-35.94 611.26,-34.43 619.31,-33.06"/>
<polygon fill="black" stroke="black" points="620.08,-36.48 629.35,-31.36 618.91,-29.58 620.08,-36.48"/>
</g>
<!-- 140045742027392 -->
<g id="node2" class="node">
<title>140045742027392</title>
<polygon fill="white" stroke="black" points="1184,-203 968,-203 968,-167 1184,-167 1184,-203"/>
<text text-anchor="middle" x="1076" y="-181.9" font-family="Times,serif" font-size="12.00">aus der Liste ein Produkt wahlen</text>
</g>
<!-- 140045741735600 -->
<g id="node46" class="node">
<title>140045741735600</title>
<ellipse fill="white" stroke="black" cx="1247" cy="-185" rx="27" ry="27"/>
</g>
<!-- 140045742027392&#45;&gt;140045741735600 -->
<g id="edge12" class="edge">
<title>140045742027392&#45;&gt;140045741735600</title>
<path fill="none" stroke="black" d="M1184.03,-185C1193.13,-185 1201.85,-185 1209.73,-185"/>
<polygon fill="black" stroke="black" points="1209.91,-188.5 1219.91,-185 1209.91,-181.5 1209.91,-188.5"/>
</g>
<!-- 140045742028544 -->
<g id="node3" class="node">
<title>140045742028544</title>
<polygon fill="white" stroke="black" points="3156,-289 3002,-289 3002,-253 3156,-253 3156,-289"/>
<text text-anchor="middle" x="3079" y="-267.9" font-family="Times,serif" font-size="12.00">Stornierung anfordern</text>
</g>
<!-- 140045741733968 -->
<g id="node42" class="node">
<title>140045741733968</title>
<ellipse fill="white" stroke="black" cx="3219" cy="-271" rx="27" ry="27"/>
</g>
<!-- 140045742028544&#45;&gt;140045741733968 -->
<g id="edge11" class="edge">
<title>140045742028544&#45;&gt;140045741733968</title>
<path fill="none" stroke="black" d="M3156.27,-271C3165.19,-271 3173.96,-271 3181.95,-271"/>
<polygon fill="black" stroke="black" points="3181.96,-274.5 3191.96,-271 3181.96,-267.5 3181.96,-274.5"/>
</g>
<!-- 140045742028928 -->
<g id="node4" class="node">
<title>140045742028928</title>
<polygon fill="white" stroke="black" points="842,-203 719,-203 719,-167 842,-167 842,-203"/>
<text text-anchor="middle" x="780.5" y="-181.9" font-family="Times,serif" font-size="12.00">Bestellung prüfen</text>
</g>
<!-- 140045741711520 -->
<g id="node48" class="node">
<title>140045741711520</title>
<ellipse fill="white" stroke="black" cx="905" cy="-185" rx="27" ry="27"/>
</g>
<!-- 140045742028928&#45;&gt;140045741711520 -->
<g id="edge6" class="edge">
<title>140045742028928&#45;&gt;140045741711520</title>
<path fill="none" stroke="black" d="M842.03,-185C850.83,-185 859.66,-185 867.77,-185"/>
<polygon fill="black" stroke="black" points="867.97,-188.5 877.97,-185 867.97,-181.5 867.97,-188.5"/>
</g>
<!-- 140045742028688 -->
<g id="node5" class="node">
<title>140045742028688</title>
<polygon fill="white" stroke="black" points="2322,-294 2203,-294 2203,-258 2322,-258 2322,-294"/>
<text text-anchor="middle" x="2262.5" y="-272.9" font-family="Times,serif" font-size="12.00">produkt geliefert</text>
</g>
<!-- 140045741773728 -->
<g id="node38" class="node">
<title>140045741773728</title>
<ellipse fill="white" stroke="black" cx="2385" cy="-271" rx="27" ry="27"/>
</g>
<!-- 140045742028688&#45;&gt;140045741773728 -->
<g id="edge60" class="edge">
<title>140045742028688&#45;&gt;140045741773728</title>
<path fill="none" stroke="black" d="M2322.34,-273.56C2330.98,-273.2 2339.66,-272.84 2347.66,-272.51"/>
<polygon fill="black" stroke="black" points="2347.9,-276 2357.74,-272.09 2347.61,-269.01 2347.9,-276"/>
</g>
<!-- 140045742027536 -->
<g id="node6" class="node">
<title>140045742027536</title>
<polygon fill="white" stroke="black" points="4190,-357 3988,-357 3988,-321 4190,-321 4190,-357"/>
<text text-anchor="middle" x="4089" y="-335.9" font-family="Times,serif" font-size="12.00">produkt von der liste streichen</text>
</g>
<!-- 140045741776800 -->
<g id="node40" class="node">
<title>140045741776800</title>
<ellipse fill="white" stroke="black" cx="4253" cy="-339" rx="27" ry="27"/>
</g>
<!-- 140045742027536&#45;&gt;140045741776800 -->
<g id="edge62" class="edge">
<title>140045742027536&#45;&gt;140045741776800</title>
<path fill="none" stroke="black" d="M4190.29,-339C4199.28,-339 4207.93,-339 4215.77,-339"/>
<polygon fill="black" stroke="black" points="4215.91,-342.5 4225.91,-339 4215.91,-335.5 4215.91,-342.5"/>
</g>
<!-- 140045742029840 -->
<g id="node7" class="node">
<title>140045742029840</title>
<polygon fill="black" stroke="black" points="3772,-272 3718,-272 3718,-236 3772,-236 3772,-272"/>
</g>
<!-- 140045742029936 -->
<g id="node51" class="node">
<title>140045742029936</title>
<ellipse fill="white" stroke="black" cx="2140" cy="-285" rx="27" ry="27"/>
</g>
<!-- 140045742029840&#45;&gt;140045742029936 -->
<g id="edge17" class="edge">
<title>140045742029840&#45;&gt;140045742029936</title>
<path fill="none" stroke="black" d="M3717.86,-258.89C3628.89,-275.1 3329.59,-326 3080,-326 2384,-326 2384,-326 2384,-326 2302.91,-326 2282.4,-319.47 2203,-303 2193.99,-301.13 2184.38,-298.61 2175.49,-296.05"/>
<polygon fill="black" stroke="black" points="2176.4,-292.67 2165.82,-293.17 2174.4,-299.38 2176.4,-292.67"/>
</g>
<!-- 140045741793680 -->
<g id="node8" class="node">
<title>140045741793680</title>
<polygon fill="black" stroke="black" points="4370,-307 4316,-307 4316,-271 4370,-271 4370,-307"/>
</g>
<!-- 140045741712480 -->
<g id="node54" class="node">
<title>140045741712480</title>
<ellipse fill="white" stroke="black" cx="4433" cy="-129" rx="27" ry="27"/>
</g>
<!-- 140045741793680&#45;&gt;140045741712480 -->
<g id="edge23" class="edge">
<title>140045741793680&#45;&gt;140045741712480</title>
<path fill="none" stroke="black" d="M4353.92,-270.96C4368.55,-244.36 4396.12,-194.23 4414.28,-161.22"/>
<polygon fill="black" stroke="black" points="4417.38,-162.85 4419.13,-152.4 4411.24,-159.48 4417.38,-162.85"/>
</g>
<!-- 140045741794448 -->
<g id="node9" class="node">
<title>140045741794448</title>
<polygon fill="black" stroke="black" points="3772,-389 3718,-389 3718,-353 3772,-353 3772,-389"/>
</g>
<!-- 140045741733920 -->
<g id="node53" class="node">
<title>140045741733920</title>
<ellipse fill="white" stroke="black" cx="3925" cy="-339" rx="27" ry="27"/>
</g>
<!-- 140045741794448&#45;&gt;140045741733920 -->
<g id="edge24" class="edge">
<title>140045741794448&#45;&gt;140045741733920</title>
<path fill="none" stroke="black" d="M3772.26,-366.28C3802.94,-360.76 3853.84,-351.61 3888.14,-345.45"/>
<polygon fill="black" stroke="black" points="3888.98,-348.85 3898.21,-343.64 3887.74,-341.96 3888.98,-348.85"/>
</g>
<!-- 140045742027680 -->
<g id="node10" class="node">
<title>140045742027680</title>
<polygon fill="white" stroke="black" points="3862,-335 3628,-335 3628,-299 3862,-299 3862,-335"/>
<text text-anchor="middle" x="3745" y="-313.9" font-family="Times,serif" font-size="12.00">Antwort zu Ersatz Angebot erhalten</text>
</g>
<!-- 140045742027680&#45;&gt;140045741733920 -->
<g id="edge2" class="edge">
<title>140045742027680&#45;&gt;140045741733920</title>
<path fill="none" stroke="black" d="M3862.24,-331.37C3871.4,-332.5 3880.14,-333.58 3888.01,-334.55"/>
<polygon fill="black" stroke="black" points="3887.8,-338.05 3898.15,-335.81 3888.66,-331.1 3887.8,-338.05"/>
</g>
<!-- 140045742029216 -->
<g id="node11" class="node">
<title>140045742029216</title>
<polygon fill="white" stroke="black" points="1586,-203 1310,-203 1310,-167 1586,-167 1586,-203"/>
<text text-anchor="middle" x="1448" y="-181.9" font-family="Times,serif" font-size="12.00">Lagerbestand für gewahlte Produkt prüfen</text>
</g>
<!-- 140045741794928 -->
<g id="node36" class="node">
<title>140045741794928</title>
<ellipse fill="white" stroke="black" cx="1649" cy="-185" rx="27" ry="27"/>
</g>
<!-- 140045742029216&#45;&gt;140045741794928 -->
<g id="edge9" class="edge">
<title>140045742029216&#45;&gt;140045741794928</title>
<path fill="none" stroke="black" d="M1586.13,-185C1595.29,-185 1603.96,-185 1611.74,-185"/>
<polygon fill="black" stroke="black" points="1611.77,-188.5 1621.77,-185 1611.77,-181.5 1611.77,-188.5"/>
</g>
<!-- 140045742028592 -->
<g id="node12" class="node">
<title>140045742028592</title>
<polygon fill="white" stroke="black" points="2876,-243 2628,-243 2628,-207 2876,-207 2876,-243"/>
<text text-anchor="middle" x="2752" y="-221.9" font-family="Times,serif" font-size="12.00">produkt kann nicht hergestellt werden</text>
</g>
<!-- 140045741775840 -->
<g id="node39" class="node">
<title>140045741775840</title>
<ellipse fill="white" stroke="black" cx="2939" cy="-225" rx="27" ry="27"/>
</g>
<!-- 140045742028592&#45;&gt;140045741775840 -->
<g id="edge61" class="edge">
<title>140045742028592&#45;&gt;140045741775840</title>
<path fill="none" stroke="black" d="M2876.14,-225C2885.29,-225 2893.98,-225 2901.81,-225"/>
<polygon fill="black" stroke="black" points="2901.9,-228.5 2911.9,-225 2901.9,-221.5 2901.9,-228.5"/>
</g>
<!-- 140045742028976 -->
<g id="node13" class="node">
<title>140045742028976</title>
<polygon fill="white" stroke="black" points="1897,-205 1712,-205 1712,-169 1897,-169 1897,-205"/>
<text text-anchor="middle" x="1804.5" y="-183.9" font-family="Times,serif" font-size="12.00">Bestellung in Auftrag geben</text>
</g>
<!-- 140045741794784 -->
<g id="node35" class="node">
<title>140045741794784</title>
<ellipse fill="white" stroke="black" cx="1960" cy="-191" rx="27" ry="27"/>
</g>
<!-- 140045742028976&#45;&gt;140045741794784 -->
<g id="edge5" class="edge">
<title>140045742028976&#45;&gt;140045741794784</title>
<path fill="none" stroke="black" d="M1897.01,-189.38C1906.01,-189.62 1914.74,-189.85 1922.66,-190.05"/>
<polygon fill="black" stroke="black" points="1922.82,-193.56 1932.91,-190.32 1923,-186.56 1922.82,-193.56"/>
</g>
<!-- 140045742029360 -->
<g id="node14" class="node">
<title>140045742029360</title>
<polygon fill="white" stroke="black" points="271,-203 90,-203 90,-167 271,-167 271,-203"/>
<text text-anchor="middle" x="180.5" y="-181.9" font-family="Times,serif" font-size="12.00">Die Bestellung wird erstellt</text>
</g>
<!-- 140045741735120 -->
<g id="node43" class="node">
<title>140045741735120</title>
<ellipse fill="white" stroke="black" cx="334" cy="-185" rx="27" ry="27"/>
</g>
<!-- 140045742029360&#45;&gt;140045741735120 -->
<g id="edge8" class="edge">
<title>140045742029360&#45;&gt;140045741735120</title>
<path fill="none" stroke="black" d="M271.38,-185C280.23,-185 288.81,-185 296.62,-185"/>
<polygon fill="black" stroke="black" points="296.74,-188.5 306.74,-185 296.74,-181.5 296.74,-188.5"/>
</g>
<!-- 140045741774256 -->
<g id="node15" class="node">
<title>140045741774256</title>
<polygon fill="black" stroke="black" points="807.5,-148 753.5,-148 753.5,-112 807.5,-112 807.5,-148"/>
</g>
<!-- 140045741774256&#45;&gt;140045741711520 -->
<g id="edge18" class="edge">
<title>140045741774256&#45;&gt;140045741711520</title>
<path fill="none" stroke="black" d="M807.78,-141.8C826.15,-150.04 850.82,-161.12 870.58,-170"/>
<polygon fill="black" stroke="black" points="869.29,-173.25 879.84,-174.15 872.15,-166.87 869.29,-173.25"/>
</g>
<!-- 140045741796656 -->
<g id="node16" class="node">
<title>140045741796656</title>
<polygon fill="black" stroke="black" points="1987,-146 1933,-146 1933,-110 1987,-110 1987,-146"/>
</g>
<!-- 140045742029504 -->
<g id="node50" class="node">
<title>140045742029504</title>
<ellipse fill="white" stroke="black" cx="3925" cy="-120" rx="27" ry="27"/>
</g>
<!-- 140045741796656&#45;&gt;140045742029504 -->
<g id="edge29" class="edge">
<title>140045741796656&#45;&gt;140045742029504</title>
<path fill="none" stroke="black" d="M1987.22,-126.08C2021.93,-123.72 2085.02,-120 2139,-120 2139,-120 2139,-120 3566,-120 3683.75,-120 3823.29,-120 3887.87,-120"/>
<polygon fill="black" stroke="black" points="3887.95,-123.5 3897.95,-120 3887.95,-116.5 3887.95,-123.5"/>
</g>
<!-- 140045742027584 -->
<g id="node17" class="node">
<title>140045742027584</title>
<polygon fill="white" stroke="black" points="4576,-147 4496,-147 4496,-111 4576,-111 4576,-147"/>
<text text-anchor="middle" x="4536" y="-125.9" font-family="Times,serif" font-size="12.00">verpacken</text>
</g>
<!-- 140045741773104 -->
<g id="node47" class="node">
<title>140045741773104</title>
<ellipse fill="white" stroke="black" cx="4639" cy="-129" rx="27" ry="27"/>
</g>
<!-- 140045742027584&#45;&gt;140045741773104 -->
<g id="edge65" class="edge">
<title>140045742027584&#45;&gt;140045741773104</title>
<path fill="none" stroke="black" d="M4576.05,-129C4584.48,-129 4593.36,-129 4601.68,-129"/>
<polygon fill="black" stroke="black" points="4601.85,-132.5 4611.85,-129 4601.85,-125.5 4601.85,-132.5"/>
</g>
<!-- 140045742028496 -->
<g id="node18" class="node">
<title>140045742028496</title>
<polygon fill="white" stroke="black" points="562,-203 428,-203 428,-167 562,-167 562,-203"/>
<text text-anchor="middle" x="495" y="-181.9" font-family="Times,serif" font-size="12.00">Bestellung erhalten</text>
</g>
<!-- 140045741735216 -->
<g id="node44" class="node">
<title>140045741735216</title>
<ellipse fill="white" stroke="black" cx="656" cy="-185" rx="27" ry="27"/>
</g>
<!-- 140045742028496&#45;&gt;140045741735216 -->
<g id="edge4" class="edge">
<title>140045742028496&#45;&gt;140045741735216</title>
<path fill="none" stroke="black" d="M562.05,-185C581.37,-185 601.78,-185 618.53,-185"/>
<polygon fill="black" stroke="black" points="618.97,-188.5 628.97,-185 618.97,-181.5 618.97,-188.5"/>
</g>
<!-- 140045742026960 -->
<g id="node19" class="node">
<title>140045742026960</title>
<polygon fill="white" stroke="black" points="5375,-147 5231,-147 5231,-111 5375,-111 5375,-147"/>
<text text-anchor="middle" x="5303" y="-125.9" font-family="Times,serif" font-size="12.00">die Rechnung senden</text>
</g>
<!-- 140045742029072 -->
<g id="node56" class="node">
<title>140045742029072</title>
<ellipse fill="white" stroke="black" cx="5442" cy="-129" rx="27" ry="27"/>
<ellipse fill="none" stroke="black" cx="5442" cy="-129" rx="31" ry="31"/>
<text text-anchor="start" x="5426.5" y="-120.9" font-family="Times,serif" font-size="32.00">■</text>
</g>
<!-- 140045742026960&#45;&gt;140045742029072 -->
<g id="edge13" class="edge">
<title>140045742026960&#45;&gt;140045742029072</title>
<path fill="none" stroke="black" d="M5375.31,-129C5383.99,-129 5392.61,-129 5400.61,-129"/>
<polygon fill="black" stroke="black" points="5400.72,-132.5 5410.72,-129 5400.72,-125.5 5400.72,-132.5"/>
</g>
<!-- 140045741773776 -->
<g id="node20" class="node">
<title>140045741773776</title>
<polygon fill="black" stroke="black" points="3772,-200 3718,-200 3718,-164 3772,-164 3772,-200"/>
</g>
<!-- 140045741773776&#45;&gt;140045742029504 -->
<g id="edge16" class="edge">
<title>140045741773776&#45;&gt;140045742029504</title>
<path fill="none" stroke="black" d="M3772.26,-172.85C3803.42,-162 3855.45,-143.88 3889.75,-131.93"/>
<polygon fill="black" stroke="black" points="3891.06,-135.18 3899.35,-128.59 3888.75,-128.57 3891.06,-135.18"/>
</g>
<!-- 140045741774544 -->
<g id="node21" class="node">
<title>140045741774544</title>
<polygon fill="black" stroke="black" points="932,-51 878,-51 878,-15 932,-15 932,-51"/>
</g>
<!-- 140045741774544&#45;&gt;140045741712480 -->
<g id="edge19" class="edge">
<title>140045741774544&#45;&gt;140045741712480</title>
<path fill="none" stroke="black" d="M932.02,-33.77C988.94,-35.39 1128.81,-39 1246,-39 1246,-39 1246,-39 4254,-39 4312.42,-39 4371.14,-78.08 4404.4,-104.74"/>
<polygon fill="black" stroke="black" points="4402.34,-107.58 4412.29,-111.22 4406.78,-102.17 4402.34,-107.58"/>
</g>
<!-- 140045741775312 -->
<g id="node22" class="node">
<title>140045741775312</title>
<polygon fill="black" stroke="black" points="2502,-260 2448,-260 2448,-224 2502,-224 2502,-260"/>
</g>
<!-- 140045741714016 -->
<g id="node52" class="node">
<title>140045741714016</title>
<ellipse fill="white" stroke="black" cx="2565" cy="-225" rx="27" ry="27"/>
</g>
<!-- 140045741775312&#45;&gt;140045741714016 -->
<g id="edge20" class="edge">
<title>140045741775312&#45;&gt;140045741714016</title>
<path fill="none" stroke="black" d="M2502.4,-236.9C2510.55,-235.32 2519.67,-233.56 2528.34,-231.89"/>
<polygon fill="black" stroke="black" points="2529.07,-235.31 2538.22,-229.98 2527.74,-228.44 2529.07,-235.31"/>
</g>
<!-- 140045741776080 -->
<g id="node23" class="node">
<title>140045741776080</title>
<polygon fill="black" stroke="black" points="3106,-229 3052,-229 3052,-193 3106,-193 3106,-229"/>
</g>
<!-- 140045742029552 -->
<g id="node41" class="node">
<title>140045742029552</title>
<ellipse fill="white" stroke="black" cx="3219" cy="-191" rx="27" ry="27"/>
</g>
<!-- 140045741776080&#45;&gt;140045742029552 -->
<g id="edge21" class="edge">
<title>140045741776080&#45;&gt;140045742029552</title>
<path fill="none" stroke="black" d="M3106.28,-207.19C3127.67,-204.09 3158.09,-199.68 3181.79,-196.25"/>
<polygon fill="black" stroke="black" points="3182.42,-199.69 3191.82,-194.79 3181.42,-192.77 3182.42,-199.69"/>
</g>
<!-- 140045741795024 -->
<g id="node24" class="node">
<title>140045741795024</title>
<polygon fill="black" stroke="black" points="2077,-251 2023,-251 2023,-215 2077,-215 2077,-251"/>
</g>
<!-- 140045741795024&#45;&gt;140045742029936 -->
<g id="edge27" class="edge">
<title>140045741795024&#45;&gt;140045742029936</title>
<path fill="none" stroke="black" d="M2077.4,-248.6C2086.94,-254.24 2097.79,-260.65 2107.71,-266.51"/>
<polygon fill="black" stroke="black" points="2106.09,-269.62 2116.48,-271.69 2109.65,-263.59 2106.09,-269.62"/>
</g>
<!-- 140045741733296 -->
<g id="node55" class="node">
<title>140045741733296</title>
<ellipse fill="white" stroke="black" cx="2140" cy="-213" rx="27" ry="27"/>
</g>
<!-- 140045741795024&#45;&gt;140045741733296 -->
<g id="edge28" class="edge">
<title>140045741795024&#45;&gt;140045741733296</title>
<path fill="none" stroke="black" d="M2077.4,-227C2085.63,-225.13 2094.83,-223.04 2103.57,-221.05"/>
<polygon fill="black" stroke="black" points="2104.55,-224.42 2113.52,-218.79 2103,-217.59 2104.55,-224.42"/>
</g>
<!-- 140045742027104 -->
<g id="node25" class="node">
<title>140045742027104</title>
<polygon fill="white" stroke="black" points="3502,-382 3282,-382 3282,-346 3502,-346 3502,-382"/>
<text text-anchor="middle" x="3392" y="-360.9" font-family="Times,serif" font-size="12.00">Antwort zur Stornierung erhalten</text>
</g>
<!-- 140045741776656 -->
<g id="node34" class="node">
<title>140045741776656</title>
<ellipse fill="white" stroke="black" cx="3565" cy="-366" rx="27" ry="27"/>
</g>
<!-- 140045742027104&#45;&gt;140045741776656 -->
<g id="edge3" class="edge">
<title>140045742027104&#45;&gt;140045741776656</title>
<path fill="none" stroke="black" d="M3502.27,-365.28C3511.27,-365.38 3519.88,-365.48 3527.68,-365.58"/>
<polygon fill="black" stroke="black" points="3527.71,-369.08 3537.75,-365.69 3527.79,-362.08 3527.71,-369.08"/>
</g>
<!-- 140045742029408 -->
<g id="node26" class="node">
<title>140045742029408</title>
<polygon fill="white" stroke="black" points="4834,-147 4702,-147 4702,-111 4834,-111 4834,-147"/>
<text text-anchor="middle" x="4768" y="-125.9" font-family="Times,serif" font-size="12.00">Rechnung erstellen</text>
</g>
<!-- 140045741735792 -->
<g id="node45" class="node">
<title>140045741735792</title>
<ellipse fill="white" stroke="black" cx="4897" cy="-129" rx="27" ry="27"/>
</g>
<!-- 140045742029408&#45;&gt;140045741735792 -->
<g id="edge10" class="edge">
<title>140045742029408&#45;&gt;140045741735792</title>
<path fill="none" stroke="black" d="M4834.36,-129C4843.15,-129 4851.89,-129 4859.91,-129"/>
<polygon fill="black" stroke="black" points="4859.98,-132.5 4869.98,-129 4859.98,-125.5 4859.98,-132.5"/>
</g>
<!-- 140045741795168 -->
<g id="node27" class="node">
<title>140045741795168</title>
<polygon fill="black" stroke="black" points="2077,-197 2023,-197 2023,-161 2077,-161 2077,-197"/>
</g>
<!-- 140045741795168&#45;&gt;140045742029552 -->
<g id="edge25" class="edge">
<title>140045741795168&#45;&gt;140045742029552</title>
<path fill="none" stroke="black" d="M2077.17,-174.7C2116.89,-168.56 2194.84,-158 2261.5,-158 2261.5,-158 2261.5,-158 2940,-158 3027.71,-158 3129.91,-174.4 3182.59,-184.08"/>
<polygon fill="black" stroke="black" points="3181.97,-187.52 3192.44,-185.92 3183.25,-180.64 3181.97,-187.52"/>
</g>
<!-- 140045741795168&#45;&gt;140045741733296 -->
<g id="edge26" class="edge">
<title>140045741795168&#45;&gt;140045741733296</title>
<path fill="none" stroke="black" d="M2077.4,-189.2C2086.03,-192.53 2095.73,-196.28 2104.85,-199.8"/>
<polygon fill="black" stroke="black" points="2103.83,-203.16 2114.42,-203.5 2106.35,-196.63 2103.83,-203.16"/>
</g>
<!-- 140045742028400 -->
<g id="node28" class="node">
<title>140045742028400</title>
<polygon fill="white" stroke="black" points="3447,-209 3337,-209 3337,-173 3447,-173 3447,-209"/>
<text text-anchor="middle" x="3392" y="-187.9" font-family="Times,serif" font-size="12.00">14 Tage warten</text>
</g>
<!-- 140045741773536 -->
<g id="node33" class="node">
<title>140045741773536</title>
<ellipse fill="white" stroke="black" cx="3565" cy="-191" rx="27" ry="27"/>
</g>
<!-- 140045742028400&#45;&gt;140045741773536 -->
<g id="edge1" class="edge">
<title>140045742028400&#45;&gt;140045741773536</title>
<path fill="none" stroke="black" d="M3447.11,-191C3473.41,-191 3504.32,-191 3527.74,-191"/>
<polygon fill="black" stroke="black" points="3527.94,-194.5 3537.94,-191 3527.94,-187.5 3527.94,-194.5"/>
</g>
<!-- 140045742029168 -->
<g id="node29" class="node">
<title>140045742029168</title>
<polygon fill="white" stroke="black" points="5105,-147 4960,-147 4960,-111 5105,-111 5105,-147"/>
<text text-anchor="middle" x="5032.5" y="-125.9" font-family="Times,serif" font-size="12.00">Bestellung versenden</text>
</g>
<!-- 140045741772912 -->
<g id="node49" class="node">
<title>140045741772912</title>
<ellipse fill="white" stroke="black" cx="5168" cy="-129" rx="27" ry="27"/>
</g>
<!-- 140045742029168&#45;&gt;140045741772912 -->
<g id="edge7" class="edge">
<title>140045742029168&#45;&gt;140045741772912</title>
<path fill="none" stroke="black" d="M5105.33,-129C5114.17,-129 5122.89,-129 5130.87,-129"/>
<polygon fill="black" stroke="black" points="5130.87,-132.5 5140.87,-129 5130.87,-125.5 5130.87,-132.5"/>
</g>
<!-- 140045741733104 -->
<g id="node30" class="node">
<title>140045741733104</title>
<polygon fill="black" stroke="black" points="2412,-224 2358,-224 2358,-188 2412,-188 2412,-224"/>
</g>
<!-- 140045741733104&#45;&gt;140045741714016 -->
<g id="edge15" class="edge">
<title>140045741733104&#45;&gt;140045741714016</title>
<path fill="none" stroke="black" d="M2412.32,-207.42C2435.87,-208.84 2471.31,-211.34 2502,-215 2510.47,-216.01 2519.55,-217.34 2528.07,-218.69"/>
<polygon fill="black" stroke="black" points="2527.69,-222.17 2538.12,-220.34 2528.82,-215.27 2527.69,-222.17"/>
</g>
<!-- 140045741793392 -->
<g id="node31" class="node">
<title>140045741793392</title>
<polygon fill="black" stroke="black" points="4370,-406 4316,-406 4316,-370 4370,-370 4370,-406"/>
</g>
<!-- 140045741793392&#45;&gt;140045741711520 -->
<g id="edge22" class="edge">
<title>140045741793392&#45;&gt;140045741711520</title>
<path fill="none" stroke="black" d="M4315.66,-393.75C4269.97,-403.2 4172.95,-421 4090,-421 1246,-421 1246,-421 1246,-421 1102.97,-421 976.8,-278.3 927.75,-214.83"/>
<polygon fill="black" stroke="black" points="930.46,-212.61 921.61,-206.78 924.89,-216.85 930.46,-212.61"/>
</g>
<!-- 140045742027872 -->
<g id="node32" class="node">
<title>140045742027872</title>
<ellipse fill="white" stroke="black" cx="27" cy="-185" rx="27" ry="27"/>
<text text-anchor="start" x="11.5" y="-176.3" font-family="Times,serif" font-size="34.00">●</text>
</g>
<!-- 140045742027872&#45;&gt;140045742029360 -->
<g id="edge63" class="edge">
<title>140045742027872&#45;&gt;140045742029360</title>
<path fill="none" stroke="black" d="M54.04,-185C61.62,-185 70.39,-185 79.7,-185"/>
<polygon fill="black" stroke="black" points="79.98,-188.5 89.98,-185 79.98,-181.5 79.98,-188.5"/>
</g>
<!-- 140045741773536&#45;&gt;140045742029840 -->
<g id="edge31" class="edge">
<title>140045741773536&#45;&gt;140045742029840</title>
<path fill="none" stroke="black" d="M3590.75,-199.76C3621.18,-210.53 3673.07,-228.9 3707.93,-241.23"/>
<polygon fill="black" stroke="black" points="3707.13,-244.66 3717.72,-244.7 3709.46,-238.06 3707.13,-244.66"/>
</g>
<!-- 140045741773536&#45;&gt;140045741773776 -->
<g id="edge30" class="edge">
<title>140045741773536&#45;&gt;140045741773776</title>
<path fill="none" stroke="black" d="M3592.26,-189.67C3622.85,-188.13 3673.55,-185.56 3707.84,-183.83"/>
<polygon fill="black" stroke="black" points="3708.11,-187.32 3717.92,-183.32 3707.75,-180.33 3708.11,-187.32"/>
</g>
<!-- 140045741776656&#45;&gt;140045741794448 -->
<g id="edge33" class="edge">
<title>140045741776656&#45;&gt;140045741794448</title>
<path fill="none" stroke="black" d="M3592.26,-366.74C3622.85,-367.6 3673.55,-369.02 3707.84,-369.98"/>
<polygon fill="black" stroke="black" points="3707.82,-373.49 3717.92,-370.27 3708.02,-366.49 3707.82,-373.49"/>
</g>
<!-- 140045741776656&#45;&gt;140045742027680 -->
<g id="edge32" class="edge">
<title>140045741776656&#45;&gt;140045742027680</title>
<path fill="none" stroke="black" d="M3590.53,-356.58C3601.84,-352.42 3615.5,-347.66 3628,-344 3635.62,-341.77 3643.56,-339.6 3651.56,-337.53"/>
<polygon fill="black" stroke="black" points="3652.49,-340.9 3661.32,-335.04 3650.77,-334.11 3652.49,-340.9"/>
</g>
<!-- 140045741794784&#45;&gt;140045741795024 -->
<g id="edge35" class="edge">
<title>140045741794784&#45;&gt;140045741795024</title>
<path fill="none" stroke="black" d="M1984.58,-202.26C1993.53,-206.53 2003.93,-211.49 2013.73,-216.17"/>
<polygon fill="black" stroke="black" points="2012.34,-219.38 2022.87,-220.53 2015.36,-213.06 2012.34,-219.38"/>
</g>
<!-- 140045741794784&#45;&gt;140045741795168 -->
<g id="edge34" class="edge">
<title>140045741794784&#45;&gt;140045741795168</title>
<path fill="none" stroke="black" d="M1986.93,-187.46C1995.09,-186.35 2004.26,-185.1 2012.99,-183.91"/>
<polygon fill="black" stroke="black" points="2013.52,-187.37 2022.95,-182.55 2012.57,-180.44 2013.52,-187.37"/>
</g>
<!-- 140045741794928&#45;&gt;140045742028976 -->
<g id="edge36" class="edge">
<title>140045741794928&#45;&gt;140045742028976</title>
<path fill="none" stroke="black" d="M1676.04,-185.34C1683.58,-185.44 1692.3,-185.55 1701.57,-185.67"/>
<polygon fill="black" stroke="black" points="1701.77,-189.17 1711.81,-185.81 1701.86,-182.18 1701.77,-189.17"/>
</g>
<!-- 140045741794928&#45;&gt;140045741796656 -->
<g id="edge37" class="edge">
<title>140045741794928&#45;&gt;140045741796656</title>
<path fill="none" stroke="black" d="M1673.66,-173.81C1685.03,-168.86 1698.98,-163.41 1712,-160 1785.46,-140.77 1874.37,-132.86 1922.96,-129.8"/>
<polygon fill="black" stroke="black" points="1923.21,-133.29 1932.98,-129.2 1922.79,-126.3 1923.21,-133.29"/>
</g>
<!-- 140045741773296&#45;&gt;140045741774256 -->
<g id="edge38" class="edge">
<title>140045741773296&#45;&gt;140045741774256</title>
<path fill="none" stroke="black" d="M677.23,-44.01C697.08,-60.7 727.57,-86.34 750.1,-105.28"/>
<polygon fill="black" stroke="black" points="748.1,-108.17 758,-111.93 752.6,-102.81 748.1,-108.17"/>
</g>
<!-- 140045741773296&#45;&gt;140045741774544 -->
<g id="edge39" class="edge">
<title>140045741773296&#45;&gt;140045741774544</title>
<path fill="none" stroke="black" d="M683.43,-27.64C727.82,-28.72 817.38,-30.9 867.66,-32.12"/>
<polygon fill="black" stroke="black" points="867.67,-35.62 877.76,-32.36 867.84,-28.62 867.67,-35.62"/>
</g>
<!-- 140045741773728&#45;&gt;140045742028544 -->
<g id="edge40" class="edge">
<title>140045741773728&#45;&gt;140045742028544</title>
<path fill="none" stroke="black" d="M2411.87,-275.03C2446.44,-280.06 2509.67,-288 2564,-288 2564,-288 2564,-288 2753,-288 2833.98,-288 2926.16,-282.67 2991.62,-277.98"/>
<polygon fill="black" stroke="black" points="2992.17,-281.45 3001.89,-277.23 2991.66,-274.47 2992.17,-281.45"/>
</g>
<!-- 140045741773728&#45;&gt;140045741775312 -->
<g id="edge41" class="edge">
<title>140045741773728&#45;&gt;140045741775312</title>
<path fill="none" stroke="black" d="M2410.98,-262.77C2419.42,-259.99 2429,-256.83 2438.11,-253.83"/>
<polygon fill="black" stroke="black" points="2439.33,-257.11 2447.73,-250.66 2437.13,-250.46 2439.33,-257.11"/>
</g>
<!-- 140045741775840&#45;&gt;140045742028544 -->
<g id="edge42" class="edge">
<title>140045741775840&#45;&gt;140045742028544</title>
<path fill="none" stroke="black" d="M2964.99,-233.33C2978.82,-237.94 2996.69,-243.9 3014.13,-249.71"/>
<polygon fill="black" stroke="black" points="3013.15,-253.07 3023.74,-252.91 3015.36,-246.43 3013.15,-253.07"/>
</g>
<!-- 140045741775840&#45;&gt;140045741776080 -->
<g id="edge43" class="edge">
<title>140045741775840&#45;&gt;140045741776080</title>
<path fill="none" stroke="black" d="M2965.96,-222.37C2987.31,-220.2 3017.83,-217.1 3041.62,-214.69"/>
<polygon fill="black" stroke="black" points="3042.09,-218.16 3051.69,-213.67 3041.39,-211.2 3042.09,-218.16"/>
</g>
<!-- 140045741776800&#45;&gt;140045741793680 -->
<g id="edge45" class="edge">
<title>140045741776800&#45;&gt;140045741793680</title>
<path fill="none" stroke="black" d="M4277.12,-325.86C4286.24,-320.68 4296.93,-314.61 4306.96,-308.91"/>
<polygon fill="black" stroke="black" points="4308.96,-311.8 4315.93,-303.81 4305.5,-305.71 4308.96,-311.8"/>
</g>
<!-- 140045741776800&#45;&gt;140045741793392 -->
<g id="edge44" class="edge">
<title>140045741776800&#45;&gt;140045741793392</title>
<path fill="none" stroke="black" d="M4277.12,-351.87C4286.24,-356.95 4296.93,-362.9 4306.96,-368.49"/>
<polygon fill="black" stroke="black" points="4305.49,-371.68 4315.93,-373.48 4308.89,-365.56 4305.49,-371.68"/>
</g>
<!-- 140045742029552&#45;&gt;140045742028400 -->
<g id="edge46" class="edge">
<title>140045742029552&#45;&gt;140045742028400</title>
<path fill="none" stroke="black" d="M3246.34,-191C3267.7,-191 3298.73,-191 3326.57,-191"/>
<polygon fill="black" stroke="black" points="3326.66,-194.5 3336.66,-191 3326.66,-187.5 3326.66,-194.5"/>
</g>
<!-- 140045741733968&#45;&gt;140045742027104 -->
<g id="edge47" class="edge">
<title>140045741733968&#45;&gt;140045742027104</title>
<path fill="none" stroke="black" d="M3243.06,-283.54C3270.06,-298.23 3315.32,-322.84 3348.69,-340.99"/>
<polygon fill="black" stroke="black" points="3347.3,-344.22 3357.76,-345.92 3350.64,-338.07 3347.3,-344.22"/>
</g>
<!-- 140045741735120&#45;&gt;140045742028496 -->
<g id="edge48" class="edge">
<title>140045741735120&#45;&gt;140045742028496</title>
<path fill="none" stroke="black" d="M361.26,-185C376.8,-185 397.37,-185 417.66,-185"/>
<polygon fill="black" stroke="black" points="417.9,-188.5 427.9,-185 417.9,-181.5 417.9,-188.5"/>
</g>
<!-- 140045741735216&#45;&gt;140045742028928 -->
<g id="edge49" class="edge">
<title>140045741735216&#45;&gt;140045742028928</title>
<path fill="none" stroke="black" d="M683.28,-185C690.89,-185 699.58,-185 708.56,-185"/>
<polygon fill="black" stroke="black" points="708.78,-188.5 718.78,-185 708.78,-181.5 708.78,-188.5"/>
</g>
<!-- 140045741735792&#45;&gt;140045742029168 -->
<g id="edge50" class="edge">
<title>140045741735792&#45;&gt;140045742029168</title>
<path fill="none" stroke="black" d="M4924.06,-129C4931.69,-129 4940.47,-129 4949.66,-129"/>
<polygon fill="black" stroke="black" points="4949.75,-132.5 4959.75,-129 4949.75,-125.5 4949.75,-132.5"/>
</g>
<!-- 140045741735600&#45;&gt;140045742029216 -->
<g id="edge51" class="edge">
<title>140045741735600&#45;&gt;140045742029216</title>
<path fill="none" stroke="black" d="M1274.02,-185C1281.44,-185 1290.11,-185 1299.52,-185"/>
<polygon fill="black" stroke="black" points="1299.59,-188.5 1309.59,-185 1299.59,-181.5 1299.59,-188.5"/>
</g>
<!-- 140045741773104&#45;&gt;140045742029408 -->
<g id="edge52" class="edge">
<title>140045741773104&#45;&gt;140045742029408</title>
<path fill="none" stroke="black" d="M4666.01,-129C4673.73,-129 4682.62,-129 4691.84,-129"/>
<polygon fill="black" stroke="black" points="4691.94,-132.5 4701.94,-129 4691.94,-125.5 4691.94,-132.5"/>
</g>
<!-- 140045741711520&#45;&gt;140045742027392 -->
<g id="edge53" class="edge">
<title>140045741711520&#45;&gt;140045742027392</title>
<path fill="none" stroke="black" d="M932.04,-185C939.59,-185 948.38,-185 957.8,-185"/>
<polygon fill="black" stroke="black" points="957.83,-188.5 967.83,-185 957.83,-181.5 957.83,-188.5"/>
</g>
<!-- 140045741772912&#45;&gt;140045742026960 -->
<g id="edge54" class="edge">
<title>140045741772912&#45;&gt;140045742026960</title>
<path fill="none" stroke="black" d="M5195.28,-129C5202.89,-129 5211.64,-129 5220.77,-129"/>
<polygon fill="black" stroke="black" points="5220.8,-132.5 5230.8,-129 5220.8,-125.5 5220.8,-132.5"/>
</g>
<!-- 140045742029504&#45;&gt;140045742027008 -->
<g id="edge55" class="edge">
<title>140045742029504&#45;&gt;140045742027008</title>
<path fill="none" stroke="black" d="M3898.05,-115.34C3839.2,-105.19 3691,-82 3566,-82 779.5,-82 779.5,-82 779.5,-82 721.07,-82 656.2,-76.04 603.27,-69.62"/>
<polygon fill="black" stroke="black" points="603.54,-66.12 593.19,-68.37 602.68,-73.07 603.54,-66.12"/>
</g>
<!-- 140045742029936&#45;&gt;140045742028688 -->
<g id="edge56" class="edge">
<title>140045742029936&#45;&gt;140045742028688</title>
<path fill="none" stroke="black" d="M2167.15,-283.05C2174.79,-282.48 2183.53,-281.82 2192.53,-281.15"/>
<polygon fill="black" stroke="black" points="2193.05,-284.62 2202.76,-280.39 2192.53,-277.64 2193.05,-284.62"/>
</g>
<!-- 140045741714016&#45;&gt;140045742028592 -->
<g id="edge57" class="edge">
<title>140045741714016&#45;&gt;140045742028592</title>
<path fill="none" stroke="black" d="M2592.11,-225C2599.58,-225 2608.27,-225 2617.65,-225"/>
<polygon fill="black" stroke="black" points="2617.67,-228.5 2627.67,-225 2617.67,-221.5 2617.67,-228.5"/>
</g>
<!-- 140045741733920&#45;&gt;140045742027536 -->
<g id="edge58" class="edge">
<title>140045741733920&#45;&gt;140045742027536</title>
<path fill="none" stroke="black" d="M3952.03,-339C3959.52,-339 3968.19,-339 3977.46,-339"/>
<polygon fill="black" stroke="black" points="3977.73,-342.5 3987.73,-339 3977.73,-335.5 3977.73,-342.5"/>
</g>
<!-- 140045741712480&#45;&gt;140045742027584 -->
<g id="edge59" class="edge">
<title>140045741712480&#45;&gt;140045742027584</title>
<path fill="none" stroke="black" d="M4460.01,-129C4467.82,-129 4476.67,-129 4485.48,-129"/>
<polygon fill="black" stroke="black" points="4485.73,-132.5 4495.73,-129 4485.73,-125.5 4485.73,-132.5"/>
</g>
<!-- 140045741733296&#45;&gt;140045741733104 -->
<g id="edge64" class="edge">
<title>140045741733296&#45;&gt;140045741733104</title>
<path fill="none" stroke="black" d="M2167.01,-212.25C2210.46,-211 2297.96,-208.48 2347.54,-207.05"/>
<polygon fill="black" stroke="black" points="2347.92,-210.54 2357.81,-206.75 2347.72,-203.54 2347.92,-210.54"/>
</g>
</g>
</svg>
